<?xml version="1.0" encoding="UTF-8"?>
<!DOCTYPE svg PUBLIC "-//W3C//DTD SVG 1.1//EN" "http://www.w3.org/Graphics/SVG/1.1/DTD/svg11.dtd">
<svg version="1.2" width="375.41mm" height="375.41mm" viewBox="0 0 37541 37541" preserveAspectRatio="xMidYMid" fill-rule="evenodd" stroke-width="28.222" stroke-linejoin="round" xmlns="http://www.w3.org/2000/svg" xmlns:ooo="http://xml.openoffice.org/svg/export" xmlns:xlink="http://www.w3.org/1999/xlink" xmlns:presentation="http://sun.com/xmlns/staroffice/presentation" xmlns:smil="http://www.w3.org/2001/SMIL20/" xmlns:anim="urn:oasis:names:tc:opendocument:xmlns:animation:1.0" xml:space="preserve">
 <defs class="ClipPathGroup">
  <clipPath id="presentation_clip_path" clipPathUnits="userSpaceOnUse">
   <rect x="0" y="0" width="37541" height="37541"/>
  </clipPath>
  <clipPath id="presentation_clip_path_shrink" clipPathUnits="userSpaceOnUse">
   <rect x="37" y="37" width="37466" height="37466"/>
  </clipPath>
 </defs>
 <defs class="TextShapeIndex">
  <g ooo:slide="id1" ooo:id-list="id3"/>
 </defs>
 <defs class="EmbeddedBulletChars">
  <g id="bullet-char-template-57356" transform="scale(0.00048828125,-0.00048828125)">
   <path d="M 580,1141 L 1163,571 580,0 -4,571 580,1141 Z"/>
  </g>
  <g id="bullet-char-template-57354" transform="scale(0.00048828125,-0.00048828125)">
   <path d="M 8,1128 L 1137,1128 1137,0 8,0 8,1128 Z"/>
  </g>
  <g id="bullet-char-template-10146" transform="scale(0.00048828125,-0.00048828125)">
   <path d="M 174,0 L 602,739 174,1481 1456,739 174,0 Z M 1358,739 L 309,1346 659,739 1358,739 Z"/>
  </g>
  <g id="bullet-char-template-10132" transform="scale(0.00048828125,-0.00048828125)">
   <path d="M 2015,739 L 1276,0 717,0 1260,543 174,543 174,936 1260,936 717,1481 1274,1481 2015,739 Z"/>
  </g>
  <g id="bullet-char-template-10007" transform="scale(0.00048828125,-0.00048828125)">
   <path d="M 0,-2 C -7,14 -16,27 -25,37 L 356,567 C 262,823 215,952 215,954 215,979 228,992 255,992 264,992 276,990 289,987 310,991 331,999 354,1012 L 381,999 492,748 772,1049 836,1024 860,1049 C 881,1039 901,1025 922,1006 886,937 835,863 770,784 769,783 710,716 594,584 L 774,223 C 774,196 753,168 711,139 L 727,119 C 717,90 699,76 672,76 641,76 570,178 457,381 L 164,-76 C 142,-110 111,-127 72,-127 30,-127 9,-110 8,-76 1,-67 -2,-52 -2,-32 -2,-23 -1,-13 0,-2 Z"/>
  </g>
  <g id="bullet-char-template-10004" transform="scale(0.00048828125,-0.00048828125)">
   <path d="M 285,-33 C 182,-33 111,30 74,156 52,228 41,333 41,471 41,549 55,616 82,672 116,743 169,778 240,778 293,778 328,747 346,684 L 369,508 C 377,444 397,411 428,410 L 1163,1116 C 1174,1127 1196,1133 1229,1133 1271,1133 1292,1118 1292,1087 L 1292,965 C 1292,929 1282,901 1262,881 L 442,47 C 390,-6 338,-33 285,-33 Z"/>
  </g>
  <g id="bullet-char-template-9679" transform="scale(0.00048828125,-0.00048828125)">
   <path d="M 813,0 C 632,0 489,54 383,161 276,268 223,411 223,592 223,773 276,916 383,1023 489,1130 632,1184 813,1184 992,1184 1136,1130 1245,1023 1353,916 1407,772 1407,592 1407,412 1353,268 1245,161 1136,54 992,0 813,0 Z"/>
  </g>
  <g id="bullet-char-template-8226" transform="scale(0.00048828125,-0.00048828125)">
   <path d="M 346,457 C 273,457 209,483 155,535 101,586 74,649 74,723 74,796 101,859 155,911 209,963 273,989 346,989 419,989 480,963 531,910 582,859 608,796 608,723 608,648 583,586 532,535 482,483 420,457 346,457 Z"/>
  </g>
  <g id="bullet-char-template-8211" transform="scale(0.00048828125,-0.00048828125)">
   <path d="M -4,459 L 1135,459 1135,606 -4,606 -4,459 Z"/>
  </g>
  <g id="bullet-char-template-61548" transform="scale(0.00048828125,-0.00048828125)">
   <path d="M 173,740 C 173,903 231,1043 346,1159 462,1274 601,1332 765,1332 928,1332 1067,1274 1183,1159 1299,1043 1357,903 1357,740 1357,577 1299,437 1183,322 1067,206 928,148 765,148 601,148 462,206 346,322 231,437 173,577 173,740 Z"/>
  </g>
 </defs>
 <g>
  <g id="id2" class="Master_Slide">
   <g id="bg-id2" class="Background"/>
   <g id="bo-id2" class="BackgroundObjects"/>
  </g>
 </g>
 <g class="SlideGroup">
  <g>
   <g id="container-id1">
    <g id="id1" class="Slide" clip-path="url(#presentation_clip_path)">
     <g class="Page">
      <g class="Graphic">
       <g id="id3">
        <rect class="BoundingBox" stroke="none" fill="none" x="13410" y="0" width="10583" height="37546"/>
        <defs>
         <clipPath id="clip_path_1" clipPathUnits="userSpaceOnUse">
          <path d="M 13410,0 L 23992,0 23992,37545 13410,37545 13410,0 Z"/>
         </clipPath>
        </defs>
        <g clip-path="url(#clip_path_1)">
         <path fill="rgb(255,255,255)" stroke="none" d="M 13410,17339 C 13410,26875 13415,34677 13422,34676 13428,34676 13483,34576 13544,34453 L 13654,34231 13717,34226 C 13776,34222 13784,34226 13824,34285 13919,34422 13896,34417 14631,34429 15295,34439 15521,34457 15625,34509 15651,34522 15700,34546 15734,34562 15880,34630 16043,34848 16073,35014 16079,35048 16092,35122 16103,35178 16171,35550 16012,36224 15766,36611 15652,36789 15352,37087 15286,37088 15272,37088 15252,37098 15242,37111 15231,37124 15200,37141 15173,37149 15146,37158 15092,37176 15054,37190 14956,37226 14553,37218 14482,37180 14456,37166 14418,37146 14396,37136 14301,37092 14262,37063 14175,36975 14125,36924 14083,36872 14083,36860 14083,36847 14077,36838 14069,36838 14041,36838 13937,36594 13909,36462 13900,36423 13882,36353 13868,36305 13851,36246 13840,36109 13831,35867 13810,35274 13769,35137 13559,34961 13486,34899 13422,34849 13418,34849 13414,34849 13410,35462 13410,36211 L 13410,37573 18701,37573 23992,37573 23992,18787 23992,0 23953,0 23914,0 23914,8344 23914,16687 23841,16743 C 23784,16787 23759,16821 23729,16897 23672,17040 23593,17078 23495,17009 23463,16987 23456,16987 23425,17009 23406,17022 23368,17033 23341,17033 23248,17033 23195,17053 23140,17106 23095,17150 23074,17158 23016,17158 22964,17158 22942,17166 22926,17190 22912,17210 22880,17225 22841,17230 22807,17235 22752,17246 22719,17256 22669,17271 22652,17269 22615,17247 22477,17166 21944,17126 21841,17189 21801,17213 21764,17218 21628,17218 21503,17217 21440,17224 21362,17249 21306,17267 21227,17286 21186,17291 21145,17297 21092,17311 21069,17324 21006,17357 20747,17355 20719,17322 20708,17307 20685,17300 20667,17305 20599,17321 20492,17365 20469,17387 20453,17401 20408,17409 20340,17409 L 20237,17409 20178,17479 C 20145,17518 20108,17550 20095,17550 20082,17551 20057,17561 20040,17574 19999,17605 19855,17603 19787,17572 19753,17555 19716,17550 19683,17556 19655,17562 19618,17565 19601,17564 19515,17557 19015,17591 18967,17607 18889,17634 18801,17689 18748,17746 18664,17835 18583,17863 18414,17863 18297,17863 18262,17869 18224,17894 18198,17911 18162,17925 18143,17926 18125,17926 18102,17935 18092,17947 18083,17959 18040,17972 17997,17977 17934,17985 17909,17998 17860,18047 17720,18191 17377,18247 17065,18178 16998,18163 16875,18159 16635,18163 16278,18169 16244,18176 16175,18252 16158,18270 16120,18290 16089,18295 16057,18301 16015,18319 15995,18335 15940,18377 15770,18376 15715,18333 15661,18290 15535,18290 15481,18333 15446,18360 15417,18364 15255,18364 15054,18364 14985,18381 14913,18449 14880,18480 14852,18488 14741,18495 14667,18500 14569,18509 14522,18516 L 14436,18528 14396,18644 C 14351,18772 14293,18837 14202,18863 14171,18871 14135,18889 14121,18903 14104,18920 14068,18928 14006,18928 13910,18928 13863,18957 13798,19056 13752,19127 13554,19134 13487,19067 13458,19039 13457,19004 13457,18352 13457,17588 13456,17597 13557,17597 13624,17597 13703,17569 13713,17542 13723,17515 13878,17440 13923,17440 13960,17440 14134,17377 14146,17360 14212,17267 14378,17228 14437,17292 14499,17359 14640,17322 14658,17233 14663,17207 14705,17147 14756,17093 L 14846,16999 14954,17009 C 15357,17045 15543,17031 15621,16958 15645,16936 15664,16910 15664,16900 15664,16890 15678,16869 15695,16853 15713,16838 15727,16806 15727,16782 15727,16607 15804,16486 15969,16406 16133,16325 16306,16189 16306,16140 16306,16133 16320,16123 16338,16117 16382,16103 16477,16042 16477,16027 16485,15891 16678,15687 16799,15687 16848,15687 16902,15675 16940,15656 16974,15638 17007,15624 17014,15624 17021,15624 17052,15600 17082,15569 L 17137,15515 17354,15515 C 17595,15515 17730,15493 17731,15453 17731,15374 17763,15317 17822,15291 17917,15249 17957,15255 18114,15337 18143,15352 18232,15366 18351,15374 18455,15381 18557,15396 18578,15407 18629,15435 19042,15445 19155,15421 19332,15383 19888,15366 19922,15398 19949,15421 19973,15424 20093,15416 20279,15404 20328,15378 20329,15292 20329,15269 20336,15246 20345,15241 20354,15235 20370,15207 20382,15179 20411,15110 20509,15076 20682,15076 20832,15076 20830,15079 20830,14915 20830,14846 20839,14785 20854,14757 20924,14622 20768,14570 20591,14670 20529,14705 20431,14705 20356,14671 20316,14653 20273,14638 20260,14638 20228,14638 20098,14548 20071,14507 20018,14428 19934,14380 19828,14369 19772,14364 19696,14351 19660,14342 19503,14301 19455,14291 19369,14276 19284,14261 19201,14220 19135,14161 19120,14148 19104,14137 19099,14137 19094,14137 19069,14116 19044,14091 18916,13963 18841,13934 18734,13972 18676,13993 18662,13992 18610,13970 18464,13907 18379,13863 18368,13844 18361,13833 18341,13824 18325,13824 18308,13824 18281,13811 18265,13795 18250,13780 18226,13763 18214,13758 18201,13753 18133,13709 18062,13661 17911,13558 17764,13539 17641,13605 17586,13634 17552,13636 17162,13636 16868,13636 16732,13642 16708,13655 16689,13665 16597,13678 16503,13684 16410,13691 16328,13703 16323,13712 16253,13825 15990,13897 15827,13847 15751,13824 15487,13854 15351,13901 15290,13922 15204,13953 15187,13960 15161,13970 15062,14032 14984,14086 14944,14114 14907,14137 14903,14137 14898,14137 14882,14152 14867,14171 14830,14217 14712,14216 14608,14170 14515,14129 14447,14128 14396,14168 14375,14185 14352,14199 14345,14199 14338,14199 14314,14222 14290,14249 14165,14392 14167,14391 14028,14379 13959,14373 13810,14369 13697,14371 13504,14374 13490,14372 13474,14343 13462,14320 13457,12254 13457,7156 13457,806 13454,0 13433,0 13413,0 13410,1937 13410,17339 Z M 23914,20084 L 23914,20973 23873,20992 C 23851,21002 23827,21007 23821,21002 23794,20986 23104,21027 22998,21051 22908,21072 22878,21087 22831,21137 22800,21170 22764,21198 22751,21198 22739,21198 22711,21211 22691,21227 22670,21243 22618,21277 22574,21301 22531,21326 22465,21366 22428,21390 22391,21415 22325,21441 22280,21449 22236,21457 22161,21474 22114,21487 22055,21503 21954,21511 21788,21511 L 21548,21511 21518,21577 C 21502,21614 21488,21664 21488,21688 21487,21844 21247,21953 20915,21947 L 20693,21944 20625,21999 C 20526,22079 20498,22090 20400,22090 20352,22090 20297,22100 20278,22112 20258,22124 20175,22139 20087,22145 19921,22157 19863,22180 19781,22270 19737,22318 19614,22378 19528,22394 19497,22399 19467,22413 19463,22425 19459,22437 19429,22451 19397,22457 19320,22471 19220,22523 19163,22578 19085,22653 19007,22696 18930,22707 18890,22713 18858,22724 18858,22731 18858,22759 18741,22882 18679,22920 18622,22954 18595,22959 18419,22964 L 18224,22970 18157,23024 18090,23078 18090,23201 C 18090,23319 18089,23326 18042,23365 17984,23414 17784,23425 17741,23382 17714,23355 17659,23350 17645,23373 17626,23404 17499,23426 17331,23428 17202,23429 17130,23439 17042,23465 16887,23512 16775,23524 16728,23499 16708,23488 16608,23473 16506,23466 16382,23458 16310,23445 16287,23429 16268,23416 16238,23405 16220,23405 16202,23405 16162,23391 16130,23374 16098,23357 16057,23342 16040,23342 16022,23342 15996,23328 15981,23311 15967,23294 15948,23280 15941,23280 15933,23280 15909,23267 15886,23250 15774,23171 15631,23196 15644,23292 15667,23463 15471,23593 15320,23508 15298,23495 15259,23475 15233,23463 15187,23441 15095,23348 15082,23310 15070,23275 14895,23262 14852,23292 14831,23307 14801,23327 14784,23337 14767,23346 14746,23362 14736,23372 14711,23397 14622,23393 14600,23366 14589,23353 14571,23342 14561,23342 14550,23342 14524,23329 14503,23313 14427,23252 14302,23295 14302,23383 14302,23410 14168,23519 14075,23569 14032,23591 13988,23622 13977,23636 13931,23697 13761,23673 13697,23597 13647,23536 13636,23530 13568,23530 13450,23530 13457,23586 13457,22649 13457,21729 13455,21746 13546,21746 13586,21746 13628,21728 13688,21687 13735,21655 13782,21624 13791,21618 13851,21585 13896,21570 13917,21578 13929,21583 13948,21577 13959,21565 13969,21552 13987,21542 13999,21542 14011,21542 14021,21535 14021,21527 14021,21499 14106,21432 14155,21423 14182,21418 14219,21399 14236,21380 14254,21362 14294,21320 14324,21288 14376,21233 14386,21229 14469,21229 14528,21229 14567,21221 14586,21204 14601,21190 14643,21176 14681,21172 14718,21167 14767,21157 14790,21148 14836,21131 14923,21165 14939,21206 14945,21222 14972,21229 15030,21229 15123,21229 15148,21214 15300,21066 L 15398,20971 15529,20976 C 15634,20979 15662,20975 15669,20957 15691,20901 15765,20883 15867,20909 16053,20957 16233,20922 16294,20827 16310,20803 16469,20757 16497,20768 16509,20772 16540,20765 16565,20752 16591,20739 16618,20728 16627,20728 16646,20728 16729,20637 16729,20616 16729,20608 16755,20576 16786,20544 L 16844,20486 17064,20474 C 17302,20461 17422,20469 17454,20500 17465,20511 17491,20526 17512,20532 17533,20539 17563,20555 17578,20568 17603,20590 17611,20590 17661,20566 17738,20529 17983,20529 18020,20566 18044,20590 18050,20590 18100,20566 18130,20552 18171,20540 18192,20540 18213,20540 18257,20526 18290,20509 18388,20458 19007,20455 19075,20505 19105,20527 19145,20540 19184,20540 19219,20540 19253,20550 19265,20564 19289,20593 19319,20593 19407,20564 19445,20551 19539,20534 19617,20526 19694,20518 19796,20503 19844,20493 19943,20471 20191,20479 20222,20504 20233,20513 20272,20526 20308,20532 20344,20538 20386,20552 20402,20564 20464,20612 20554,20584 20690,20477 L 20758,20423 21000,20415 C 21175,20409 21244,20402 21249,20387 21292,20256 21427,20180 21614,20180 21782,20180 21803,20174 21905,20091 21995,20017 22214,19974 22319,20008 22368,20025 22383,20024 22405,20007 22419,19995 22478,19981 22537,19975 22632,19967 22649,19960 22695,19911 22724,19880 22763,19851 22783,19844 22802,19838 22830,19812 22843,19785 22896,19684 23130,19522 23224,19522 23241,19522 23278,19512 23307,19500 23335,19487 23391,19473 23432,19468 23473,19462 23510,19451 23515,19443 23520,19435 23554,19428 23590,19428 23683,19428 23722,19401 23770,19304 23809,19226 23835,19204 23902,19195 23908,19194 23914,19594 23914,20084 Z M 22885,24984 C 22915,25002 22950,25018 22964,25018 22977,25018 22995,25029 23003,25043 23011,25058 23046,25071 23093,25076 23136,25080 23178,25093 23187,25104 23215,25140 23636,25143 23675,25108 23724,25063 23818,25078 23882,25142 23922,25182 23933,26563 23893,26596 23853,26630 23426,26627 23373,26592 23313,26552 23192,26550 23151,26587 23134,26602 23112,26614 23102,26614 23091,26614 23063,26629 23038,26647 22998,26677 22981,26679 22847,26670 22608,26654 22581,26654 22462,26672 22312,26696 22255,26740 22185,26888 22140,26984 22045,27056 21954,27065 21908,27069 21857,27082 21840,27094 21823,27106 21798,27115 21783,27115 21746,27115 21675,27176 21675,27207 21675,27247 21586,27363 21545,27375 21526,27381 21499,27396 21485,27408 21433,27454 21221,27454 21171,27409 21132,27373 21027,27323 20968,27313 20937,27307 20903,27293 20893,27281 20884,27269 20857,27255 20833,27249 20810,27243 20779,27227 20764,27214 20737,27190 20653,27225 20603,27280 20557,27332 20497,27353 20425,27343 20089,27298 19963,27319 19875,27437 19810,27524 19736,27549 19515,27562 19324,27572 19218,27603 19218,27648 19218,27692 19000,27881 18903,27921 18821,27955 18794,27974 18775,28016 18761,28044 18731,28080 18709,28096 18550,28208 18425,28349 18398,28447 18374,28535 18156,28623 18027,28597 17977,28587 17887,28620 17831,28668 17811,28686 17761,28700 17698,28706 17491,28725 17433,28773 17488,28879 17517,28936 17517,28969 17488,28994 17427,29045 17493,29149 17576,29133 17600,29129 17715,29194 17715,29213 17715,29220 17739,29230 17769,29236 17801,29242 17826,29257 17832,29274 17859,29361 17888,29370 18136,29370 18324,29370 18372,29374 18388,29393 18399,29406 18430,29417 18457,29417 18486,29417 18522,29430 18542,29449 18619,29521 18782,29533 18847,29472 18943,29384 19066,29374 19503,29418 19678,29436 19688,29435 19750,29403 19806,29374 19840,29370 20030,29370 L 20248,29370 20331,29432 C 20424,29502 20482,29511 20525,29464 20540,29447 20561,29432 20570,29432 20580,29432 20614,29418 20646,29401 20694,29375 20734,29370 20876,29370 20982,29370 21074,29361 21115,29348 21240,29307 21341,29301 21360,29333 21379,29369 21675,29377 21687,29343 21699,29308 21815,29290 22001,29295 22155,29298 22190,29295 22223,29272 22275,29235 22538,29232 22568,29268 22578,29281 22594,29292 22604,29292 22613,29292 22649,29305 22684,29321 22719,29338 22791,29354 22845,29358 22918,29362 22952,29373 22979,29398 23006,29423 23035,29432 23087,29432 23129,29432 23166,29441 23177,29454 23187,29466 23214,29481 23237,29487 23261,29493 23292,29508 23306,29521 23348,29559 23394,29533 23413,29463 23438,29371 23577,29327 23615,29399 23642,29449 23704,29449 23768,29399 23833,29347 23823,29350 23874,29369 L 23914,29385 23914,31107 C 23914,32793 23913,32829 23883,32845 23837,32870 13501,32867 13476,32842 13461,32828 13457,32212 13457,30165 L 13457,27507 13508,27438 C 13546,27387 13575,27365 13623,27352 13658,27343 13696,27325 13707,27311 13718,27298 13736,27288 13747,27288 13758,27288 13788,27271 13812,27250 13876,27196 13979,27168 14028,27191 14068,27209 14146,27189 14146,27161 14146,27068 14356,26989 14478,27036 14508,27047 14520,27041 14553,26994 14640,26871 14651,26865 14774,26865 14890,26865 14934,26845 15019,26756 15090,26682 15425,26640 15489,26698 15525,26730 15569,26723 15631,26675 15653,26658 15694,26646 15728,26646 15761,26646 15792,26639 15796,26631 15801,26623 15853,26613 15911,26608 15969,26602 16046,26595 16083,26591 16137,26585 16157,26590 16185,26618 16225,26659 16323,26663 16365,26626 16426,26572 16511,26552 16677,26552 16833,26552 16843,26550 16872,26513 16901,26476 16941,26450 17026,26410 17048,26400 17084,26382 17107,26370 17163,26340 17460,26340 17494,26369 17548,26415 17719,26446 17770,26420 17796,26406 17822,26395 17829,26395 17835,26395 17875,26360 17917,26318 17973,26262 18017,26234 18076,26216 18120,26203 18165,26186 18175,26178 18184,26171 18225,26160 18264,26154 18320,26146 18349,26130 18396,26082 18430,26047 18467,26020 18480,26020 18512,26020 18716,25957 18764,25933 18785,25922 18831,25908 18865,25902 18900,25895 18940,25879 18956,25866 18975,25849 19030,25840 19151,25835 19282,25830 19326,25822 19351,25801 19368,25785 19408,25768 19440,25763 19471,25757 19499,25747 19502,25740 19513,25714 19645,25659 19698,25659 19760,25659 19836,25726 19854,25796 19877,25888 20141,25825 20141,25728 20141,25716 20155,25680 20172,25648 20192,25612 20204,25559 20204,25511 20204,25390 20197,25393 20503,25383 20684,25376 20789,25366 20817,25352 20844,25339 20913,25331 21001,25331 21133,25331 21146,25328 21177,25292 21196,25270 21224,25252 21240,25252 21261,25252 21268,25240 21268,25207 21268,25101 21618,25026 21754,25104 21798,25129 21894,25135 21894,25112 21894,25103 21918,25086 21947,25074 21976,25062 22005,25044 22011,25035 22017,25025 22033,25018 22047,25018 22061,25018 22086,25005 22102,24990 22165,24933 22794,24928 22885,24984 Z M 21624,34215 C 21642,34228 21662,34261 21668,34288 21678,34333 21804,34474 21834,34474 21854,34474 21959,34550 22000,34593 22101,34703 22104,34722 22113,35374 22119,35768 22127,35979 22139,36000 22149,36017 22161,36059 22168,36094 22197,36253 22328,36444 22466,36526 22569,36588 22930,36583 23057,36517 23150,36469 23288,36354 23288,36324 23288,36315 23296,36301 23307,36294 23494,36175 23530,35421 23362,35137 23259,34961 22942,34867 22818,34974 22798,34992 22775,35006 22766,35006 22758,35006 22720,35034 22683,35068 22545,35196 22475,35132 22528,34928 22562,34794 22616,34646 22630,34646 22637,34646 22647,34626 22653,34603 22663,34561 22810,34412 22841,34410 22850,34410 22885,34396 22920,34380 23004,34339 23293,34335 23379,34374 23547,34449 23581,34469 23654,34542 23767,34655 23882,34845 23882,34920 23882,34933 23893,34965 23906,34990 24047,35263 23940,36029 23703,36443 23677,36489 23645,36546 23632,36570 23529,36762 23316,36977 23100,37106 22871,37242 22521,37243 22244,37109 22165,37071 21957,36888 21957,36857 21957,36848 21948,36837 21937,36833 21919,36825 21865,36726 21809,36596 21795,36562 21776,36481 21768,36416 21760,36351 21746,36248 21737,36188 21728,36128 21714,35937 21708,35765 21690,35324 21660,35172 21573,35078 21536,35038 21501,35006 21496,35006 21480,35006 21277,34853 21249,34819 21211,34774 21214,34726 21260,34644 21282,34606 21308,34558 21318,34536 21328,34515 21345,34486 21356,34474 21366,34461 21400,34401 21431,34341 21501,34203 21556,34168 21624,34215 Z M 16767,34268 C 16790,34314 16900,34411 16928,34411 16936,34411 16999,34439 17067,34473 17135,34508 17200,34536 17211,34536 17223,34536 17250,34550 17272,34567 17294,34585 17320,34599 17330,34599 17355,34599 17435,34686 17481,34763 L 17519,34826 17529,35538 C 17536,36061 17546,36303 17565,36446 17604,36740 17593,36853 17522,36928 17380,37074 17345,37114 17320,37153 17287,37205 17222,37222 17175,37191 17120,37155 17115,37077 17113,36235 17112,35562 17109,35462 17087,35421 17073,35395 17057,35350 17052,35321 17034,35226 16869,35068 16787,35068 16754,35068 16613,34994 16482,34907 16338,34813 16327,34780 16398,34661 16428,34611 16494,34464 16494,34448 16494,34438 16504,34422 16516,34412 16528,34402 16542,34376 16548,34354 16580,34225 16717,34172 16767,34268 Z M 18501,34249 C 18545,34306 18660,34411 18678,34411 18688,34411 18705,34421 18715,34433 18725,34445 18752,34459 18775,34465 18797,34471 18833,34489 18854,34506 18876,34522 18902,34536 18913,34536 18995,34536 19192,34727 19225,34838 19280,35023 19287,35092 19267,35260 19215,35713 19210,36235 19256,36533 19268,36613 19270,36674 19261,36698 19249,36732 19203,37019 19202,37068 19201,37147 19176,37151 18594,37151 17956,37151 17972,37154 18016,37028 18031,36985 18048,36916 18053,36874 18063,36791 18118,36606 18142,36575 18153,36561 18240,36556 18480,36555 18657,36555 18811,36550 18821,36543 18835,36535 18837,36385 18828,35928 18813,35157 18836,35213 18449,35031 18401,35009 18357,34990 18351,34990 18346,34990 18328,34978 18311,34963 18295,34948 18246,34905 18202,34867 18110,34788 18107,34771 18162,34649 18185,34600 18214,34535 18227,34505 18240,34475 18264,34424 18280,34392 18296,34360 18310,34323 18310,34310 18310,34238 18456,34191 18501,34249 Z M 20007,34248 C 20020,34261 20032,34279 20032,34288 20032,34330 20265,34474 20334,34474 20346,34474 20365,34484 20376,34497 20387,34510 20403,34521 20412,34521 20495,34521 20736,34702 20736,34764 20736,34777 20748,34811 20763,34838 20787,34883 20790,34963 20791,35640 20793,36283 20797,36406 20819,36493 20867,36683 20856,36821 20785,36911 20582,37168 20468,37247 20399,37180 20389,37170 20383,36882 20382,36387 20380,35726 20375,35594 20354,35515 20340,35464 20329,35408 20329,35391 20329,35288 20231,35162 20103,35102 19889,35000 19834,34972 19796,34947 19774,34932 19731,34904 19701,34884 19595,34817 19594,34771 19690,34575 19720,34515 19768,34416 19797,34356 19825,34296 19856,34241 19866,34235 19896,34215 19982,34222 20007,34248 Z M 14246,35059 C 14241,35071 14240,35312 14243,35595 14248,36156 14239,36098 14347,36320 14460,36553 14681,36655 14990,36617 15453,36560 15726,36028 15611,35407 15598,35340 15578,35273 15566,35259 15554,35244 15540,35221 15535,35208 15519,35162 15392,35073 15317,35055 15202,35027 14257,35030 14246,35059 Z"/>
         <path fill="rgb(36,28,28)" stroke="none" d="M 13492,7151 L 13496,14301 13703,14295 C 13890,14290 13916,14293 13973,14323 14053,14364 14099,14365 14146,14325 14166,14308 14187,14294 14194,14294 14201,14294 14211,14279 14216,14262 14222,14245 14236,14231 14249,14231 14261,14231 14271,14220 14271,14207 14271,14194 14283,14178 14298,14173 14313,14167 14335,14150 14346,14134 14377,14091 14610,14093 14667,14137 14735,14191 14806,14179 14886,14100 14924,14063 14987,14017 15026,13998 15066,13979 15107,13953 15117,13940 15127,13928 15151,13918 15171,13918 15190,13918 15222,13904 15242,13886 15262,13868 15300,13855 15331,13855 15360,13855 15415,13841 15454,13824 15517,13795 15552,13792 15829,13795 16110,13797 16137,13795 16169,13767 16326,13632 16373,13622 16924,13603 17183,13595 17424,13592 17461,13597 17515,13605 17539,13600 17586,13570 17672,13517 17959,13516 18016,13569 18037,13589 18062,13605 18072,13605 18082,13605 18090,13612 18090,13620 18090,13629 18114,13646 18143,13658 18172,13670 18201,13688 18207,13697 18213,13707 18240,13725 18268,13738 18295,13751 18339,13775 18364,13792 18417,13827 18477,13855 18498,13855 18505,13855 18518,13868 18527,13883 18540,13906 18569,13910 18712,13913 18805,13915 18892,13917 18905,13917 18919,13917 18971,13958 19023,14008 19111,14092 19136,14111 19236,14163 19258,14175 19281,14195 19286,14208 19293,14225 19321,14231 19394,14231 19462,14231 19504,14239 19531,14258 19560,14278 19614,14287 19743,14294 L 19916,14302 20001,14369 C 20048,14406 20102,14457 20122,14481 20224,14610 20550,14669 20664,14579 20718,14537 20766,14534 20816,14571 20837,14586 20868,14607 20885,14616 20927,14639 20931,14706 20900,14828 20885,14883 20871,14965 20868,15011 20860,15131 20849,15139 20697,15139 20477,15139 20423,15151 20423,15201 20423,15225 20409,15260 20392,15280 20374,15300 20360,15329 20360,15346 20360,15439 20291,15468 20069,15468 19924,15468 19905,15464 19887,15436 19863,15398 19723,15392 19667,15427 19642,15442 19542,15452 19319,15460 19147,15466 18975,15475 18936,15479 18789,15495 18360,15457 18271,15420 18253,15413 18204,15404 18162,15400 18116,15396 18077,15382 18066,15367 18001,15279 17777,15334 17777,15438 17777,15491 17741,15530 17692,15530 17672,15530 17647,15541 17637,15554 17621,15573 17572,15577 17385,15577 17161,15577 17152,15579 17107,15616 17082,15638 17055,15656 17049,15656 17043,15656 17029,15667 17018,15682 17008,15696 16965,15713 16923,15719 16712,15752 16597,15820 16580,15923 16564,16014 16438,16156 16372,16156 16353,16157 16337,16164 16337,16172 16337,16194 16190,16344 16169,16344 16159,16344 16143,16358 16134,16376 16125,16393 16104,16407 16088,16407 16073,16407 16043,16420 16022,16436 16002,16452 15966,16470 15943,16475 15870,16493 15826,16548 15816,16634 15804,16743 15762,16864 15726,16895 15709,16909 15695,16927 15695,16935 15695,16972 15621,17032 15563,17042 15529,17049 15491,17063 15479,17075 15449,17105 15061,17105 15043,17075 15002,17005 14886,17033 14788,17137 14736,17192 14694,17248 14694,17261 14694,17308 14662,17344 14612,17355 14584,17361 14550,17373 14537,17382 14508,17400 14416,17359 14402,17322 14390,17292 14312,17293 14287,17323 14276,17336 14258,17346 14246,17346 14235,17346 14207,17364 14183,17386 14160,17407 14132,17425 14122,17425 14111,17425 14098,17435 14094,17447 14088,17462 14048,17473 13975,17480 13911,17487 13863,17499 13858,17511 13854,17521 13831,17535 13807,17541 13782,17547 13750,17564 13735,17579 13720,17593 13693,17618 13676,17635 13655,17656 13619,17667 13570,17669 L 13496,17672 13492,18338 13488,19005 13523,19023 C 13613,19072 13730,19050 13804,18972 13880,18891 13995,18841 14044,18869 14065,18881 14075,18879 14085,18861 14092,18848 14122,18833 14150,18827 14232,18812 14329,18712 14341,18629 14348,18589 14370,18539 14394,18510 L 14436,18460 14631,18457 14827,18454 14893,18393 C 14953,18338 14967,18333 15049,18332 15254,18330 15422,18314 15446,18292 15490,18253 15730,18262 15756,18303 15781,18344 15912,18339 15959,18296 15975,18282 16008,18270 16034,18270 16067,18270 16100,18252 16146,18207 16197,18158 16227,18142 16286,18135 16327,18129 16370,18117 16382,18108 16422,18077 16981,18080 17016,18111 17061,18151 17635,18150 17679,18110 17696,18094 17722,18082 17736,18082 17751,18082 17791,18054 17825,18021 17859,17987 17903,17954 17922,17948 17942,17942 17964,17932 17973,17925 17982,17919 18031,17904 18083,17893 18136,17881 18185,17860 18197,17844 18215,17820 18242,17816 18387,17816 18523,17816 18559,17811 18566,17793 18571,17780 18593,17769 18616,17769 18643,17769 18680,17747 18724,17703 18835,17594 18882,17566 18955,17566 18973,17566 18999,17556 19013,17544 19044,17517 19722,17496 19820,17519 19933,17545 20122,17506 20134,17454 20146,17397 20167,17382 20251,17374 20356,17363 20521,17315 20554,17286 20595,17249 20747,17251 20774,17288 20802,17326 20931,17324 21010,17284 21044,17267 21102,17252 21139,17252 21176,17252 21232,17238 21264,17221 21296,17204 21337,17190 21354,17190 21371,17189 21417,17178 21455,17165 21497,17150 21575,17141 21651,17142 21720,17142 21942,17139 22143,17134 22497,17125 22511,17126 22554,17157 22617,17204 22846,17205 22888,17158 22908,17137 22937,17127 22978,17127 23025,17127 23049,17117 23081,17082 23137,17023 23180,17002 23246,17002 23277,17002 23306,16995 23311,16986 23316,16978 23334,16971 23351,16971 23368,16971 23396,16962 23412,16952 23436,16937 23457,16937 23510,16952 23651,16994 23645,16995 23657,16929 23663,16896 23681,16852 23697,16832 23713,16811 23726,16788 23726,16780 23726,16760 23808,16690 23832,16689 23847,16689 23851,15009 23851,8344 L 23851,0 18670,0 13488,0 13492,7151 Z M 23815,19331 C 23792,19438 23724,19486 23580,19495 23501,19500 23434,19513 23411,19527 23391,19541 23330,19557 23277,19563 23217,19569 23177,19582 23172,19595 23167,19607 23150,19616 23133,19616 23116,19616 23081,19634 23056,19656 23030,19677 22996,19695 22980,19695 22961,19696 22939,19722 22914,19774 22888,19831 22864,19858 22826,19874 22798,19886 22768,19905 22761,19917 22726,19973 22656,20008 22578,20008 22525,20008 22490,20017 22469,20035 22448,20055 22416,20062 22358,20060 22186,20054 21988,20073 21988,20094 21988,20105 21965,20133 21937,20155 21909,20178 21875,20206 21862,20219 21843,20237 21794,20243 21645,20243 21424,20243 21420,20244 21331,20359 21275,20432 21257,20446 21215,20446 21187,20446 21157,20454 21148,20463 21130,20481 20935,20475 20860,20454 20826,20445 20807,20454 20750,20507 20712,20542 20667,20571 20650,20571 20632,20571 20609,20585 20599,20603 20572,20646 20423,20647 20363,20605 20287,20552 20144,20542 19765,20563 19578,20573 19510,20582 19468,20605 19398,20643 19301,20642 19202,20603 19158,20585 19110,20571 19094,20571 19078,20571 19047,20557 19024,20539 18947,20478 18448,20511 18217,20593 18078,20642 18035,20644 17973,20603 17908,20560 17774,20560 17719,20603 17697,20620 17657,20634 17629,20634 17601,20634 17560,20620 17538,20603 17516,20585 17489,20571 17478,20571 17466,20571 17435,20559 17410,20543 17241,20443 16760,20539 16760,20673 16760,20730 16582,20822 16471,20822 16388,20822 16311,20862 16270,20927 16263,20938 16245,20947 16229,20947 16213,20947 16192,20957 16183,20968 16150,21007 15984,21014 15918,20978 15842,20938 15756,20938 15719,20978 15695,21005 15671,21010 15560,21010 L 15430,21010 15324,21112 C 15266,21168 15207,21224 15193,21237 15151,21276 14918,21270 14905,21229 14891,21185 14716,21183 14661,21227 14635,21247 14590,21258 14514,21263 14397,21269 14335,21307 14310,21386 14304,21405 14274,21430 14242,21443 14130,21487 14077,21519 14022,21575 13977,21620 13950,21633 13889,21640 13847,21644 13808,21656 13803,21665 13788,21688 13656,21776 13635,21777 13625,21777 13609,21787 13599,21799 13588,21812 13561,21824 13538,21827 L 13496,21832 13496,22661 13496,23491 13574,23495 C 13702,23502 13721,23510 13735,23566 13752,23630 13885,23650 13937,23596 13975,23558 14073,23499 14101,23499 14133,23499 14271,23365 14271,23334 14271,23275 14376,23201 14424,23226 14447,23238 14479,23248 14493,23248 14508,23248 14535,23264 14552,23283 14590,23323 14756,23335 14768,23298 14812,23166 15038,23191 15175,23343 15231,23405 15272,23436 15295,23436 15315,23436 15343,23450 15359,23468 15394,23507 15467,23508 15504,23470 15570,23401 15601,23350 15593,23323 15576,23272 15602,23209 15657,23165 L 15713,23121 15775,23153 C 15809,23171 15852,23186 15869,23186 15887,23186 15931,23210 15968,23240 16009,23274 16059,23298 16100,23305 16137,23311 16177,23325 16189,23337 16200,23349 16261,23368 16324,23380 16387,23392 16459,23410 16484,23420 16562,23450 16972,23443 17031,23410 17070,23389 17133,23381 17326,23374 17529,23367 17576,23361 17601,23339 17641,23302 17724,23304 17773,23342 17909,23449 18054,23353 18056,23155 18057,23046 18063,23019 18086,23003 18101,22992 18123,22976 18133,22967 18174,22932 18240,22920 18392,22920 18605,22920 18676,22887 18801,22727 18824,22699 18874,22671 18950,22644 19054,22608 19081,22589 19155,22501 19164,22490 19188,22481 19209,22481 19229,22481 19249,22472 19254,22459 19259,22447 19292,22432 19329,22426 19366,22420 19405,22405 19417,22393 19429,22382 19458,22367 19481,22361 19504,22356 19531,22342 19541,22332 19551,22322 19587,22309 19620,22304 19663,22297 19702,22273 19758,22218 19867,22113 19885,22106 20048,22106 20167,22106 20196,22101 20212,22078 20228,22057 20261,22050 20363,22045 20444,22042 20502,22032 20517,22018 20595,21946 20633,21918 20650,21918 20661,21918 20678,21907 20689,21894 20715,21863 20777,21864 20789,21896 20809,21948 21251,21880 21338,21812 21419,21748 21456,21683 21456,21606 21457,21479 21484,21468 21840,21446 22151,21428 22268,21412 22325,21380 22351,21366 22379,21354 22388,21354 22397,21354 22416,21340 22431,21323 22446,21306 22471,21292 22487,21292 22503,21292 22528,21278 22543,21262 22558,21245 22587,21227 22608,21222 22629,21217 22646,21206 22646,21199 22646,21191 22672,21176 22703,21165 22735,21155 22777,21127 22797,21104 22882,21002 22966,20981 23311,20973 23563,20967 23634,20960 23676,20939 23723,20915 23746,20914 23820,20933 23840,20939 23844,20838 23847,20113 23851,19367 23844,19192 23815,19331 Z M 22163,25018 C 22142,25035 22114,25049 22099,25049 22084,25049 22059,25063 22043,25080 22028,25097 22000,25111 21982,25111 21964,25111 21940,25126 21928,25145 21902,25186 21742,25182 21694,25138 21655,25102 21454,25100 21425,25135 21414,25148 21383,25164 21356,25171 21317,25181 21306,25194 21300,25233 21285,25322 21208,25362 21050,25362 20947,25362 20906,25368 20876,25389 20844,25412 20791,25418 20557,25425 L 20276,25432 20263,25479 C 20255,25505 20243,25568 20235,25619 20227,25670 20212,25717 20202,25723 20191,25730 20175,25758 20166,25786 20147,25844 20132,25853 20023,25878 19920,25901 19850,25873 19790,25786 19761,25745 19734,25722 19712,25722 19651,25723 19564,25750 19538,25775 19524,25789 19493,25800 19469,25800 19445,25800 19413,25814 19398,25832 19374,25857 19349,25863 19256,25863 19165,25863 19116,25873 18997,25919 18916,25950 18822,25981 18787,25988 18753,25994 18703,26011 18678,26025 18652,26039 18598,26051 18559,26051 18496,26051 18481,26058 18436,26109 18379,26174 18311,26208 18184,26238 18137,26250 18084,26268 18067,26280 18050,26292 18027,26301 18014,26301 18002,26301 17966,26328 17935,26361 17809,26495 17690,26525 17558,26456 17438,26393 17045,26402 17020,26468 17015,26480 17001,26489 16989,26489 16976,26489 16942,26517 16912,26552 L 16859,26614 16663,26614 C 16490,26614 16463,26618 16431,26646 16411,26663 16387,26677 16378,26677 16368,26677 16342,26687 16319,26699 16271,26724 16165,26690 16165,26650 16165,26625 16096,26624 16051,26649 16032,26659 15945,26672 15857,26679 15731,26688 15688,26697 15653,26723 15622,26746 15588,26756 15546,26754 15512,26752 15395,26750 15287,26750 L 15089,26749 15034,26807 C 15004,26839 14972,26865 14962,26865 14953,26865 14938,26879 14928,26896 14914,26923 14896,26928 14796,26928 14670,26928 14631,26936 14631,26966 14631,27035 14509,27134 14474,27092 14437,27046 14276,27060 14248,27112 14181,27234 14158,27247 14012,27250 13894,27252 13875,27256 13854,27285 13841,27304 13814,27319 13793,27319 13772,27319 13754,27326 13754,27334 13754,27342 13709,27372 13653,27400 13597,27427 13551,27458 13551,27467 13551,27476 13537,27492 13520,27503 13488,27523 13488,27536 13492,30172 L 13496,32822 18670,32822 23843,32822 23847,31112 C 23849,30171 23848,29401 23844,29401 23840,29401 23810,29426 23778,29456 23709,29519 23683,29523 23629,29480 23546,29415 23444,29446 23444,29536 23444,29596 23343,29603 23244,29550 23203,29528 23144,29506 23111,29501 23079,29495 23048,29485 23044,29477 23039,29470 23023,29464 23007,29464 22991,29464 22962,29451 22941,29435 22915,29414 22868,29403 22783,29398 22704,29393 22652,29382 22634,29366 22587,29324 22486,29303 22379,29313 22323,29319 22160,29327 22016,29332 21871,29337 21754,29348 21754,29356 21754,29388 21614,29436 21546,29427 21398,29408 21361,29396 21338,29364 21315,29333 21312,29333 21294,29357 21278,29378 21238,29386 21111,29393 21021,29398 20923,29409 20893,29416 20862,29424 20785,29438 20720,29447 20619,29463 20595,29473 20547,29520 20492,29573 20407,29585 20407,29540 20407,29533 20397,29526 20385,29526 20372,29526 20352,29513 20341,29496 20297,29434 19975,29411 19768,29455 19689,29472 19619,29473 19431,29461 19066,29437 18931,29451 18868,29519 18812,29581 18664,29599 18623,29550 18612,29537 18590,29526 18574,29526 18559,29526 18533,29513 18518,29497 18480,29458 18408,29447 18134,29440 17876,29434 17821,29415 17801,29323 17793,29286 17782,29276 17753,29276 17732,29276 17700,29261 17682,29243 17661,29222 17618,29206 17562,29198 17430,29180 17421,29163 17425,28924 17429,28679 17427,28681 17618,28667 17719,28660 17767,28649 17789,28630 17805,28615 17824,28603 17831,28603 17838,28603 17861,28589 17883,28571 17917,28545 17946,28540 18084,28540 18202,28540 18249,28534 18258,28519 18265,28507 18290,28486 18313,28470 18340,28454 18363,28420 18372,28384 18381,28351 18399,28316 18412,28305 18424,28294 18435,28277 18435,28267 18435,28257 18463,28228 18497,28203 18531,28177 18560,28152 18560,28146 18560,28140 18596,28109 18640,28077 18686,28043 18730,27995 18742,27966 18754,27937 18772,27914 18781,27914 18790,27914 18816,27900 18838,27883 18859,27865 18899,27851 18926,27851 18972,27851 19061,27783 19061,27747 19061,27740 19089,27710 19124,27681 19158,27652 19186,27619 19186,27609 19186,27562 19247,27535 19377,27527 19449,27522 19518,27510 19531,27499 19544,27488 19609,27476 19678,27473 19757,27469 19805,27460 19809,27448 19817,27421 19910,27328 19958,27296 19992,27274 20037,27271 20269,27275 20567,27280 20531,27289 20644,27184 20677,27154 20792,27152 20827,27181 20841,27194 20876,27213 20904,27224 20932,27235 20955,27250 20955,27257 20955,27264 20987,27275 21027,27281 21066,27287 21102,27301 21106,27312 21111,27323 21135,27337 21161,27343 21187,27349 21212,27363 21216,27375 21227,27402 21417,27406 21434,27380 21439,27370 21468,27353 21497,27341 21547,27320 21643,27196 21644,27152 21644,27122 21690,27084 21725,27084 21743,27084 21766,27073 21776,27059 21789,27042 21829,27031 21903,27025 22022,27016 22103,26954 22153,26838 22165,26810 22182,26787 22191,26787 22200,26787 22207,26777 22207,26766 22207,26727 22317,26646 22369,26645 22397,26645 22432,26635 22448,26623 22504,26580 22664,26576 22778,26614 L 22882,26649 22959,26616 C 23001,26598 23043,26583 23052,26583 23062,26583 23090,26568 23114,26550 23173,26507 23387,26511 23420,26556 23447,26594 23649,26595 23680,26558 23699,26535 23747,26533 23820,26553 23846,26560 23865,25197 23839,25171 23824,25157 23837,25157 23469,25168 23207,25177 23186,25175 23167,25148 23152,25128 23124,25119 23073,25117 23021,25116 22993,25106 22975,25085 22961,25068 22927,25050 22899,25044 22871,25038 22837,25023 22824,25010 22796,24982 22615,24977 22588,25003 22576,25016 22562,25016 22539,25003 22480,24972 22205,24983 22163,25018 Z M 13676,34291 C 13676,34311 13662,34341 13645,34356 13628,34372 13613,34401 13613,34421 13613,34442 13599,34470 13582,34485 13565,34500 13551,34528 13551,34548 13551,34567 13537,34595 13520,34610 13502,34625 13488,34649 13488,34664 13488,34711 13470,34740 13440,34740 13423,34740 13410,34750 13410,34763 13410,34776 13419,34787 13430,34787 13441,34787 13476,34815 13508,34849 13540,34884 13570,34912 13576,34912 13596,34912 13739,35041 13739,35060 13739,35070 13753,35092 13770,35108 13792,35127 13801,35156 13801,35200 13802,35238 13814,35284 13833,35311 13861,35355 13864,35385 13864,35725 13864,36031 13868,36096 13888,36118 13903,36135 13915,36191 13921,36275 13926,36350 13943,36434 13959,36470 13974,36504 13991,36558 13996,36589 14002,36621 14016,36655 14028,36665 14040,36675 14054,36703 14060,36728 14065,36753 14080,36781 14092,36791 14104,36802 14114,36817 14114,36825 14114,36850 14328,37057 14353,37057 14366,37057 14392,37071 14412,37088 14432,37105 14464,37119 14485,37119 14505,37119 14548,37133 14580,37151 14665,37196 14930,37196 14999,37151 15025,37134 15068,37119 15094,37119 15121,37119 15159,37105 15179,37088 15199,37071 15228,37057 15243,37057 15258,37057 15276,37049 15281,37040 15287,37031 15317,37008 15348,36988 15417,36944 15578,36784 15633,36704 15654,36673 15682,36637 15695,36623 15707,36610 15735,36563 15757,36519 15779,36474 15810,36421 15825,36400 15840,36378 15852,36346 15852,36327 15852,36309 15866,36276 15883,36254 15901,36232 15915,36198 15915,36178 15915,36157 15929,36120 15946,36094 15965,36066 15977,36020 15977,35981 15977,35944 15992,35886 16010,35851 16061,35754 16063,35063 16012,34967 15995,34932 15972,34886 15963,34865 15928,34784 15789,34630 15751,34630 15740,34630 15714,34617 15694,34601 15673,34585 15628,34567 15594,34561 15559,34554 15521,34540 15508,34528 15489,34511 15338,34506 14754,34502 14109,34498 14020,34494 13995,34472 13979,34458 13945,34442 13920,34436 13867,34423 13770,34324 13770,34283 13770,34262 13758,34254 13723,34254 13684,34254 13676,34261 13676,34291 Z M 16635,34284 C 16635,34300 16621,34331 16603,34353 16586,34374 16572,34403 16572,34415 16572,34428 16558,34456 16541,34478 16524,34500 16509,34532 16509,34551 16509,34569 16495,34595 16478,34610 16461,34625 16447,34653 16447,34673 16447,34693 16433,34721 16416,34735 16385,34761 16435,34849 16480,34849 16496,34849 16631,34941 16643,34960 16648,34968 16668,34975 16686,34975 16705,34975 16742,34989 16768,35006 16794,35023 16827,35037 16841,35037 16895,35037 17073,35184 17073,35228 17073,35239 17087,35276 17105,35309 17128,35352 17140,35411 17147,35524 17153,35625 17163,35685 17177,35697 17209,35723 17208,36396 17175,36439 17142,36483 17142,36862 17175,36926 17188,36951 17198,37012 17198,37068 17198,37198 17209,37198 17325,37070 17380,37009 17452,36931 17484,36897 17554,36823 17571,36616 17516,36507 17491,36459 17488,36374 17483,35671 17478,34919 17476,34886 17445,34818 17411,34743 17313,34630 17283,34630 17273,34630 17248,34617 17228,34601 17207,34585 17164,34567 17131,34561 17098,34555 17068,34541 17063,34529 17059,34518 17029,34504 16996,34499 16963,34494 16927,34479 16917,34466 16906,34453 16888,34442 16877,34442 16846,34442 16748,34344 16730,34296 16710,34245 16635,34235 16635,34284 Z M 18375,34301 C 18356,34326 18341,34359 18341,34373 18341,34388 18328,34421 18311,34448 18295,34475 18277,34519 18271,34547 18265,34574 18251,34605 18238,34615 18226,34626 18216,34646 18216,34661 18216,34676 18202,34706 18184,34728 L 18153,34768 18237,34840 C 18283,34880 18328,34912 18336,34912 18345,34912 18365,34926 18380,34943 18396,34960 18425,34974 18445,34974 18466,34974 18494,34989 18509,35006 18524,35023 18554,35037 18576,35037 18678,35037 18842,35211 18842,35319 18842,35367 18851,35413 18863,35427 18902,35472 18912,36543 18874,36590 18845,36625 18838,36626 18501,36631 L 18157,36636 18148,36713 C 18143,36756 18128,36807 18115,36826 18101,36845 18090,36892 18090,36931 18090,36970 18084,37024 18076,37051 18057,37120 18051,37119 18618,37119 19156,37119 19139,37122 19139,37022 19139,37002 19150,36970 19163,36952 19183,36923 19202,35456 19188,34901 19185,34784 19072,34671 18837,34552 18744,34504 18650,34456 18628,34444 18584,34421 18451,34288 18451,34267 18451,34238 18407,34257 18375,34301 Z M 19886,34287 C 19871,34304 19854,34339 19849,34366 19844,34392 19830,34417 19818,34422 19806,34426 19792,34458 19787,34492 19781,34526 19768,34558 19757,34562 19746,34566 19733,34594 19727,34623 19722,34652 19708,34682 19697,34688 19643,34721 19679,34849 19743,34849 19755,34849 19772,34863 19781,34881 19790,34898 19811,34912 19826,34912 19842,34912 19871,34926 19891,34943 19911,34960 19942,34974 19961,34974 19980,34974 20008,34989 20024,35006 20039,35023 20068,35037 20086,35037 20105,35037 20133,35051 20149,35068 20165,35086 20189,35100 20203,35100 20229,35100 20298,35161 20298,35184 20298,35191 20312,35214 20329,35236 20346,35258 20360,35298 20360,35324 20360,35350 20373,35385 20388,35402 20413,35429 20415,35498 20420,36280 20426,37332 20398,37268 20699,36933 L 20775,36849 20770,36535 C 20767,36316 20758,36201 20743,36157 20711,36064 20712,35465 20744,35422 20783,35371 20776,35043 20736,34982 20715,34951 20705,34909 20705,34857 20704,34770 20598,34630 20532,34630 20515,34630 20488,34617 20472,34601 20456,34585 20417,34567 20385,34561 20353,34555 20324,34541 20319,34529 20315,34518 20285,34504 20252,34499 20219,34494 20183,34479 20173,34466 20162,34453 20143,34442 20131,34442 20109,34442 20036,34374 19977,34296 19940,34248 19924,34247 19886,34287 Z M 21530,34282 C 21516,34298 21482,34352 21455,34402 21428,34453 21396,34504 21384,34517 21372,34529 21362,34552 21362,34568 21362,34584 21349,34605 21333,34613 21261,34652 21277,34801 21359,34853 21390,34872 21426,34895 21440,34904 21561,34981 21673,35087 21675,35125 21675,35135 21689,35174 21706,35212 21734,35272 21737,35315 21738,35592 21738,35843 21742,35908 21761,35929 21777,35947 21787,36022 21797,36206 21808,36398 21817,36466 21837,36494 21851,36515 21863,36549 21863,36571 21863,36593 21874,36628 21886,36650 21898,36671 21919,36710 21933,36736 21947,36762 21966,36797 21977,36814 22007,36863 22140,36994 22160,36994 22169,36994 22181,37004 22186,37016 22190,37028 22213,37043 22236,37049 22259,37054 22290,37070 22304,37082 22318,37095 22372,37112 22425,37119 22477,37126 22531,37144 22545,37157 22577,37189 22686,37189 22748,37157 22773,37144 22830,37129 22873,37124 22941,37116 23057,37070 23176,37002 23231,36972 23475,36724 23475,36700 23475,36689 23485,36676 23497,36672 23510,36667 23528,36642 23539,36617 23549,36592 23563,36571 23570,36571 23576,36571 23590,36552 23600,36528 23610,36505 23635,36457 23656,36423 23700,36350 23726,36294 23726,36271 23726,36263 23740,36237 23757,36216 23774,36194 23789,36159 23789,36139 23789,36118 23803,36075 23820,36043 23837,36011 23851,35956 23852,35922 23852,35887 23866,35831 23882,35796 23923,35711 23929,35159 23890,35115 23877,35100 23859,35048 23851,34998 23843,34948 23826,34896 23814,34882 23802,34868 23787,34834 23781,34806 23775,34778 23765,34755 23758,34755 23751,34755 23737,34735 23726,34709 23704,34655 23535,34489 23502,34489 23489,34489 23475,34479 23470,34467 23466,34455 23428,34441 23383,34435 23340,34429 23297,34414 23286,34402 23261,34372 23056,34372 23016,34402 23000,34414 22960,34429 22927,34434 22895,34440 22855,34458 22840,34475 22825,34491 22805,34505 22795,34505 22776,34505 22677,34646 22677,34673 22677,34682 22667,34697 22656,34707 22644,34717 22629,34754 22623,34791 22618,34827 22604,34871 22593,34888 22520,35001 22555,35104 22641,35030 22676,34999 22713,34974 22721,34974 22730,34974 22750,34962 22764,34948 22828,34884 23207,34884 23243,34948 23251,34963 23265,34974 23274,34974 23293,34974 23381,35055 23381,35072 23381,35079 23396,35098 23413,35115 23430,35133 23444,35162 23444,35181 23444,35199 23456,35228 23471,35245 23496,35272 23499,35316 23499,35663 23499,36011 23496,36055 23471,36082 23456,36098 23444,36123 23444,36137 23444,36168 23421,36221 23385,36275 23296,36409 23265,36446 23237,36455 23209,36464 23193,36476 23114,36548 23101,36561 23065,36576 23036,36581 23006,36587 22968,36601 22951,36613 22907,36643 22563,36643 22538,36612 22528,36600 22495,36586 22464,36580 22434,36574 22405,36559 22401,36547 22396,36535 22381,36524 22369,36524 22356,36524 22342,36510 22337,36493 22333,36476 22319,36462 22306,36462 22293,36462 22279,36448 22275,36430 22270,36413 22260,36399 22252,36399 22244,36399 22227,36376 22214,36348 22201,36320 22180,36280 22168,36258 22155,36237 22145,36200 22145,36177 22145,36154 22133,36128 22119,36120 22099,36109 22092,36072 22086,35943 22081,35843 22070,35769 22057,35750 22026,35706 22028,35326 22059,35272 22090,35218 22091,34924 22060,34876 22048,34857 22033,34810 22027,34771 22011,34671 21860,34505 21784,34505 21764,34505 21644,34384 21644,34363 21644,34300 21565,34244 21530,34282 Z M 15343,35006 C 15369,35023 15399,35037 15411,35037 15474,35037 15633,35224 15633,35299 15633,35321 15645,35354 15660,35370 15684,35397 15688,35436 15688,35679 15688,35922 15684,35961 15660,35988 15645,36005 15633,36043 15633,36073 15633,36105 15619,36146 15602,36169 15584,36190 15570,36217 15570,36228 15570,36258 15434,36449 15388,36485 15366,36502 15334,36529 15317,36545 15301,36560 15272,36580 15253,36588 15234,36597 15200,36614 15179,36627 15157,36639 15121,36649 15098,36649 15076,36650 15037,36660 15012,36673 14955,36703 14774,36704 14732,36675 14715,36664 14677,36650 14647,36646 14593,36637 14459,36561 14459,36539 14459,36533 14445,36524 14428,36520 14410,36515 14396,36500 14396,36487 14396,36473 14390,36462 14383,36462 14370,36462 14287,36343 14286,36323 14286,36318 14268,36278 14247,36235 14224,36188 14208,36128 14208,36086 14208,36047 14197,36002 14184,35985 14143,35930 14151,35070 14194,35016 L 14226,34974 14761,34975 C 15269,34975 15299,34976 15343,35006 Z"/>
        </g>
       </g>
      </g>
     </g>
    </g>
   </g>
  </g>
 </g>
</svg>