<svg id="svg" version="1.1" xmlns="http://www.w3.org/2000/svg" xmlns:xlink="http://www.w3.org/1999/xlink" width="400" height="1419.047619047619" viewBox="0, 0, 400,1419.047619047619"><g id="svgg"><path id="path0" d="M0.000 655.325 C 0.000 1015.754,0.200 1310.641,0.444 1310.629 C 0.688 1310.618,2.759 1306.823,5.047 1302.197 L 9.207 1293.787 11.603 1293.610 C 13.816 1293.446,14.127 1293.617,15.662 1295.831 C 19.239 1300.993,18.375 1300.839,46.154 1301.257 C 71.253 1301.635,79.779 1302.324,83.728 1304.295 C 84.704 1304.782,86.564 1305.679,87.861 1306.289 C 93.375 1308.879,99.531 1317.100,100.653 1323.373 C 100.886 1324.675,101.393 1327.470,101.781 1329.586 C 104.355 1343.632,98.357 1369.133,89.045 1383.728 C 84.735 1390.483,73.425 1401.747,70.930 1401.767 C 70.401 1401.772,69.640 1402.170,69.239 1402.653 C 68.839 1403.135,67.674 1403.785,66.652 1404.096 C 65.629 1404.407,63.595 1405.099,62.130 1405.635 C 58.455 1406.978,43.205 1406.703,40.533 1405.244 C 39.556 1404.711,38.092 1403.966,37.278 1403.588 C 33.679 1401.916,32.196 1400.838,28.927 1397.517 C 27.011 1395.571,25.444 1393.603,25.444 1393.144 C 25.444 1392.684,25.209 1392.308,24.922 1392.308 C 23.870 1392.308,19.932 1383.103,18.846 1378.107 C 18.527 1376.642,17.844 1373.979,17.328 1372.189 C 16.684 1369.956,16.242 1364.759,15.918 1355.621 C 15.125 1333.217,13.564 1328.024,5.628 1321.376 C 2.860 1319.057,0.462 1317.160,0.298 1317.160 C 0.134 1317.160,0.000 1340.325,0.000 1368.639 L 0.000 1420.118 200.000 1420.118 L 400.000 1420.118 400.000 710.059 L 400.000 0.000 398.521 0.000 L 397.041 0.000 397.041 315.358 L 397.041 630.715 394.279 632.825 C 392.132 634.464,391.190 635.756,390.056 638.621 C 387.901 644.061,384.933 645.483,381.197 642.866 C 380.006 642.032,379.757 642.032,378.567 642.866 C 377.843 643.372,376.412 643.787,375.386 643.787 C 371.889 643.787,369.861 644.518,367.799 646.520 C 366.088 648.182,365.295 648.521,363.119 648.521 C 361.146 648.521,360.299 648.818,359.688 649.724 C 359.183 650.471,357.980 651.043,356.509 651.233 C 355.207 651.402,353.127 651.841,351.887 652.208 C 350.004 652.766,349.353 652.710,347.932 651.871 C 342.735 648.801,322.580 647.274,318.709 649.656 C 317.183 650.595,315.788 650.785,310.651 650.752 C 305.911 650.721,303.526 651.002,300.592 651.938 C 298.476 652.613,295.479 653.335,293.932 653.542 C 292.384 653.750,290.387 654.301,289.494 654.767 C 287.115 656.008,277.339 655.948,276.292 654.686 C 275.846 654.149,274.996 653.877,274.296 654.046 C 271.763 654.659,267.716 656.336,266.817 657.146 C 266.208 657.695,264.521 657.988,261.965 657.988 L 258.047 657.988 255.821 660.651 C 254.597 662.115,253.186 663.322,252.685 663.332 C 252.185 663.343,251.258 663.742,250.627 664.220 C 249.083 665.387,243.603 665.338,241.066 664.134 C 239.759 663.513,238.381 663.313,237.131 663.560 C 236.073 663.769,234.675 663.896,234.024 663.841 C 230.761 663.567,211.872 664.863,210.059 665.485 C 207.091 666.503,203.798 668.586,201.775 670.724 C 198.607 674.072,195.542 675.147,189.152 675.152 C 184.734 675.155,183.398 675.374,181.953 676.331 C 180.976 676.978,179.611 677.509,178.919 677.511 C 178.226 677.513,177.359 677.877,176.991 678.320 C 176.623 678.764,175.006 679.282,173.397 679.473 C 171.015 679.755,170.053 680.246,168.224 682.114 C 162.917 687.531,149.969 689.663,138.173 687.060 C 135.644 686.502,130.990 686.341,121.901 686.497 C 108.420 686.729,107.116 686.981,104.503 689.869 C 103.890 690.547,102.426 691.278,101.250 691.494 C 100.074 691.711,98.477 692.381,97.701 692.985 C 95.651 694.580,89.214 694.528,87.144 692.899 C 85.079 691.275,80.333 691.275,78.268 692.899 C 76.955 693.932,75.868 694.083,69.724 694.083 C 62.149 694.083,59.543 694.735,56.805 697.314 C 55.569 698.478,54.496 698.762,50.296 699.038 C 47.530 699.220,43.811 699.577,42.032 699.832 L 38.798 700.296 37.261 704.668 C 35.555 709.521,33.372 711.978,29.921 712.931 C 28.768 713.250,27.404 713.932,26.888 714.447 C 26.249 715.086,24.863 715.385,22.531 715.385 C 18.893 715.385,17.105 716.485,14.668 720.227 C 12.920 722.910,5.426 723.178,2.896 720.647 C 1.830 719.582,1.775 718.256,1.775 693.623 C 1.775 664.750,1.730 665.089,5.567 665.089 C 8.097 665.089,11.064 664.042,11.460 663.008 C 11.844 662.009,17.703 659.172,19.383 659.172 C 20.775 659.172,27.353 656.796,27.829 656.122 C 30.303 652.610,36.576 651.141,38.809 653.550 C 41.167 656.094,46.487 654.693,47.156 651.352 C 47.353 650.366,48.969 648.073,50.890 646.054 L 54.276 642.495 58.351 642.861 C 73.600 644.230,80.627 643.695,83.580 640.941 C 84.475 640.107,85.207 639.115,85.207 638.738 C 85.207 638.362,85.740 637.571,86.391 636.982 C 87.041 636.393,87.574 635.182,87.574 634.290 C 87.574 627.670,90.504 623.117,96.732 620.061 C 102.923 617.022,109.467 611.862,109.467 610.019 C 109.467 609.759,110.016 609.373,110.687 609.160 C 112.360 608.629,115.921 606.319,115.951 605.745 C 116.225 600.617,123.521 592.899,128.094 592.899 C 129.942 592.899,132.010 592.441,133.432 591.716 C 134.709 591.065,135.972 590.533,136.240 590.533 C 136.507 590.533,137.658 589.601,138.797 588.462 L 140.868 586.391 149.087 586.391 C 158.206 586.391,163.312 585.558,163.317 584.070 C 163.327 581.080,164.549 578.903,166.763 577.926 C 170.353 576.343,171.877 576.583,177.811 579.671 C 178.926 580.252,182.253 580.771,186.764 581.068 C 190.712 581.327,194.573 581.890,195.344 582.317 C 197.279 583.389,212.871 583.769,217.160 582.848 C 223.841 581.413,244.851 580.773,246.167 581.965 C 247.165 582.868,248.073 582.968,252.621 582.673 C 259.648 582.218,261.511 581.239,261.529 577.994 C 261.534 577.118,261.809 576.234,262.139 576.030 C 262.470 575.826,263.107 574.780,263.556 573.705 C 264.652 571.082,268.331 569.822,274.894 569.822 C 280.570 569.822,280.472 569.930,280.477 563.709 C 280.479 561.104,280.822 558.814,281.365 557.773 C 284.033 552.656,278.142 550.693,271.437 554.466 C 269.110 555.775,265.396 555.791,262.569 554.503 C 261.062 553.816,259.428 553.254,258.938 553.254 C 257.712 553.254,252.801 549.870,251.769 548.314 C 249.782 545.319,246.591 543.505,242.604 543.106 C 240.488 542.893,237.626 542.428,236.243 542.070 C 230.306 540.536,228.510 540.125,225.252 539.558 C 222.051 539.001,218.910 537.467,216.420 535.244 C 215.851 534.735,215.231 534.320,215.043 534.320 C 214.855 534.320,213.919 533.536,212.961 532.579 C 208.138 527.756,205.281 526.661,201.238 528.087 C 199.040 528.863,198.541 528.854,196.578 528.007 C 191.043 525.619,187.832 523.956,187.397 523.251 C 187.136 522.830,186.404 522.485,185.769 522.485 C 185.135 522.485,184.129 521.999,183.535 521.405 C 182.940 520.810,182.060 520.173,181.579 519.988 C 181.097 519.803,178.511 518.159,175.832 516.335 C 170.124 512.448,164.576 511.704,159.918 514.201 C 157.867 515.300,156.579 515.385,141.834 515.385 C 130.725 515.385,125.570 515.595,124.665 516.085 C 123.954 516.471,120.474 516.981,116.930 517.218 C 113.386 517.456,110.319 517.924,110.112 518.257 C 107.475 522.525,97.512 525.246,91.366 523.377 C 88.487 522.501,78.517 523.628,73.373 525.411 C 71.082 526.205,67.815 527.373,67.160 527.633 C 66.182 528.020,62.436 530.350,59.503 532.396 C 57.986 533.454,56.602 534.320,56.426 534.320 C 56.251 534.320,55.634 534.903,55.056 535.617 C 53.669 537.330,49.212 537.309,45.286 535.573 C 41.775 534.019,39.203 533.997,37.278 535.503 C 36.464 536.139,35.595 536.666,35.346 536.673 C 35.096 536.680,34.164 537.519,33.275 538.536 C 28.527 543.965,28.600 543.929,23.373 543.458 C 20.769 543.224,15.133 543.091,10.847 543.164 C 3.562 543.288,3.013 543.219,2.415 542.102 C 1.959 541.250,1.775 463.166,1.775 270.453 C 1.775 30.445,1.675 0.000,0.888 0.000 C 0.099 0.000,0.000 73.208,0.000 655.325 M397.041 759.077 L 397.041 792.709 395.518 793.404 C 394.680 793.785,393.781 793.966,393.520 793.805 C 392.498 793.173,366.445 794.719,362.426 795.649 C 359.006 796.441,357.909 797.007,356.133 798.896 C 354.951 800.154,353.589 801.183,353.107 801.183 C 352.625 801.183,351.593 801.685,350.813 802.299 C 350.033 802.912,348.049 804.177,346.402 805.109 C 344.756 806.042,342.273 807.555,340.885 808.471 C 339.497 809.388,336.986 810.384,335.305 810.686 C 333.624 810.987,330.793 811.635,329.013 812.126 C 326.781 812.741,322.964 813.018,316.706 813.018 L 307.634 813.018 306.493 815.533 C 305.865 816.916,305.346 818.804,305.338 819.729 C 305.293 825.626,296.228 829.727,283.699 829.518 L 275.304 829.378 272.711 831.475 C 268.992 834.482,267.931 834.911,264.219 834.911 C 262.396 834.911,260.315 835.284,259.595 835.739 C 258.857 836.205,255.712 836.750,252.402 836.986 C 246.116 837.434,243.925 838.329,240.828 841.711 C 239.157 843.536,234.504 845.815,231.270 846.392 C 230.081 846.604,228.971 847.136,228.803 847.575 C 228.634 848.013,227.520 848.554,226.327 848.778 C 223.405 849.326,219.618 851.278,217.456 853.349 C 214.509 856.172,211.579 857.803,208.673 858.239 C 207.157 858.466,205.917 858.877,205.917 859.152 C 205.917 860.204,201.514 864.857,199.185 866.265 C 197.000 867.586,195.975 867.762,189.349 867.953 L 181.953 868.166 179.438 870.217 L 176.923 872.269 176.923 876.910 C 176.923 881.367,176.851 881.613,175.103 883.083 C 172.900 884.937,165.330 885.364,163.694 883.728 C 162.692 882.726,160.607 882.546,160.069 883.416 C 159.354 884.574,154.578 885.406,148.225 885.481 C 143.354 885.538,140.599 885.893,137.278 886.890 C 131.448 888.640,127.179 889.094,125.417 888.152 C 124.659 887.746,120.887 887.194,117.036 886.927 C 112.358 886.602,109.602 886.138,108.732 885.528 C 108.015 885.026,106.885 884.615,106.221 884.615 C 105.556 884.615,104.018 884.083,102.804 883.432 C 101.590 882.781,100.060 882.249,99.405 882.249 C 98.749 882.249,97.757 881.716,97.200 881.065 C 96.643 880.414,95.954 879.882,95.670 879.882 C 95.386 879.882,94.446 879.382,93.582 878.770 C 89.342 875.770,83.948 876.704,84.438 880.354 C 85.304 886.811,77.887 891.737,72.189 888.488 C 71.376 888.024,69.907 887.269,68.926 886.810 C 67.170 885.988,63.684 882.471,63.207 881.040 C 62.765 879.715,56.136 879.194,54.508 880.356 C 53.732 880.909,52.578 881.663,51.943 882.032 C 51.308 882.401,50.491 883.000,50.128 883.363 C 49.171 884.321,45.831 884.173,44.970 883.136 C 44.565 882.648,43.903 882.249,43.498 882.249 C 43.094 882.249,42.120 881.743,41.334 881.124 C 38.424 878.836,33.728 880.466,33.728 883.765 C 33.728 884.792,28.665 888.931,25.126 890.797 C 23.511 891.648,21.845 892.803,21.423 893.362 C 19.691 895.661,13.257 894.742,10.857 891.852 C 8.950 889.557,8.546 889.349,5.986 889.349 C 1.511 889.349,1.775 891.441,1.775 856.056 C 1.775 821.278,1.715 821.893,5.137 821.893 C 6.637 821.893,8.239 821.232,10.510 819.675 C 12.291 818.454,14.049 817.287,14.418 817.080 C 16.688 815.811,18.376 815.271,19.148 815.567 C 19.634 815.753,20.350 815.522,20.739 815.054 C 21.128 814.585,21.813 814.201,22.262 814.201 C 22.710 814.201,23.077 813.946,23.077 813.633 C 23.077 812.559,26.322 810.059,28.167 809.713 C 29.183 809.522,30.566 808.790,31.241 808.086 C 31.916 807.381,33.408 805.806,34.557 804.586 C 36.498 802.525,36.888 802.367,40.022 802.367 C 42.273 802.367,43.743 802.054,44.434 801.429 C 45.004 800.913,46.623 800.360,48.031 800.198 C 49.439 800.037,51.297 799.639,52.158 799.314 C 53.901 798.657,57.182 799.937,57.786 801.510 C 58.015 802.108,59.056 802.367,61.226 802.367 C 64.770 802.367,65.679 801.820,71.458 796.216 L 75.165 792.621 80.112 792.789 C 84.066 792.923,85.127 792.779,85.398 792.071 C 86.209 789.958,89.008 789.286,92.874 790.277 C 99.897 792.076,106.704 790.767,109.029 787.170 C 109.613 786.267,115.618 784.515,116.703 784.931 C 117.160 785.107,118.315 784.843,119.270 784.345 C 120.225 783.847,121.279 783.438,121.614 783.436 C 122.336 783.431,125.444 780.001,125.444 779.209 C 125.444 778.907,126.423 777.679,127.621 776.482 L 129.797 774.305 138.124 773.838 C 147.103 773.333,151.663 773.641,152.854 774.832 C 153.267 775.245,154.259 775.783,155.057 776.027 C 155.856 776.272,156.981 776.886,157.557 777.392 C 158.508 778.227,158.800 778.221,160.684 777.322 C 163.603 775.930,172.877 775.920,174.264 777.307 C 175.170 778.213,175.385 778.213,177.285 777.307 C 178.410 776.770,179.979 776.331,180.771 776.331 C 181.564 776.331,183.222 775.805,184.456 775.162 C 188.169 773.226,211.551 773.099,214.125 775.000 C 215.273 775.847,216.771 776.331,218.247 776.331 C 219.586 776.331,220.876 776.706,221.302 777.219 C 222.228 778.335,223.369 778.336,226.670 777.223 C 228.111 776.737,231.686 776.090,234.615 775.786 C 237.544 775.482,241.405 774.921,243.195 774.539 C 246.948 773.739,256.322 774.018,257.492 774.965 C 257.927 775.317,259.391 775.788,260.744 776.011 C 262.097 776.234,263.695 776.789,264.295 777.243 C 266.660 779.035,270.045 778.008,275.172 773.943 L 277.756 771.893 286.907 771.598 C 293.517 771.384,296.125 771.095,296.304 770.557 C 297.951 765.601,303.025 762.722,310.112 762.722 C 316.474 762.722,317.256 762.482,321.100 759.348 C 324.506 756.572,332.780 754.924,336.744 756.232 C 338.620 756.851,339.185 756.841,339.993 756.170 C 340.531 755.723,342.782 755.192,344.995 754.989 C 348.608 754.658,349.221 754.408,350.989 752.541 C 352.072 751.397,353.561 750.272,354.296 750.041 C 355.032 749.809,356.059 748.799,356.578 747.795 C 358.553 743.976,367.410 737.870,370.975 737.870 C 371.621 737.870,373.024 737.484,374.092 737.013 C 375.161 736.542,377.294 735.994,378.832 735.796 C 380.371 735.597,381.784 735.184,381.974 734.877 C 382.163 734.570,383.434 734.316,384.798 734.311 C 388.333 734.298,389.801 733.286,391.617 729.610 C 393.081 726.648,394.061 725.840,396.598 725.503 C 396.842 725.470,397.041 740.579,397.041 759.077 M358.140 944.290 C 359.272 944.990,360.620 945.562,361.135 945.562 C 361.650 945.562,362.311 945.990,362.603 946.512 C 362.934 947.103,364.231 947.576,366.035 947.762 C 367.630 947.927,369.218 948.414,369.564 948.845 C 370.645 950.190,386.530 950.293,388.000 948.964 C 389.883 947.263,393.415 947.853,395.834 950.272 C 397.353 951.791,397.770 1003.984,396.273 1005.227 C 394.736 1006.502,378.609 1006.374,376.612 1005.070 C 374.315 1003.571,369.774 1003.469,368.212 1004.882 C 367.582 1005.451,366.744 1005.917,366.350 1005.917 C 365.955 1005.917,364.875 1006.477,363.949 1007.162 C 362.417 1008.295,361.767 1008.373,356.724 1008.026 C 347.696 1007.406,346.648 1007.412,342.168 1008.109 C 336.512 1008.991,334.355 1010.672,331.700 1016.272 C 329.978 1019.903,326.420 1022.623,322.967 1022.946 C 321.237 1023.108,319.297 1023.603,318.655 1024.046 C 318.013 1024.489,317.051 1024.852,316.516 1024.852 C 315.108 1024.852,312.426 1027.131,312.426 1028.329 C 312.426 1029.823,309.035 1034.192,307.516 1034.655 C 306.799 1034.873,305.767 1035.443,305.221 1035.921 C 303.251 1037.649,295.240 1037.665,293.356 1035.946 C 291.888 1034.606,287.907 1032.715,285.710 1032.315 C 284.523 1032.099,283.247 1031.555,282.875 1031.107 C 282.504 1030.660,281.479 1030.114,280.597 1029.894 C 279.715 1029.674,278.541 1029.085,277.987 1028.586 C 276.976 1027.675,273.782 1028.983,271.893 1031.082 C 270.148 1033.023,267.872 1033.830,265.174 1033.467 C 252.449 1031.751,247.708 1032.557,244.379 1036.999 C 241.911 1040.292,239.136 1041.255,230.769 1041.722 C 223.561 1042.124,219.527 1043.296,219.527 1044.989 C 219.527 1046.650,211.293 1053.782,207.629 1055.296 C 204.523 1056.578,203.526 1057.314,202.783 1058.874 C 202.268 1059.954,201.147 1061.328,200.293 1061.928 C 194.274 1066.153,189.557 1071.478,188.549 1075.188 C 187.650 1078.493,179.401 1081.827,174.531 1080.853 C 172.643 1080.475,169.242 1081.715,167.125 1083.552 C 166.360 1084.216,164.486 1084.742,162.095 1084.963 C 154.254 1085.690,152.052 1087.499,154.138 1091.500 C 155.262 1093.654,155.263 1094.928,154.142 1095.858 C 151.832 1097.775,154.324 1101.708,157.473 1101.115 C 158.400 1100.941,162.722 1103.427,162.722 1104.135 C 162.722 1104.392,163.639 1104.774,164.760 1104.984 C 165.965 1105.210,166.934 1105.799,167.133 1106.425 C 168.178 1109.718,169.258 1110.059,178.649 1110.059 C 185.732 1110.059,187.571 1110.231,188.166 1110.947 C 188.571 1111.435,189.751 1111.834,190.789 1111.834 C 191.884 1111.834,193.232 1112.352,194.000 1113.067 C 196.891 1115.761,203.061 1116.226,205.531 1113.937 C 209.129 1110.603,213.803 1110.214,230.298 1111.876 C 236.930 1112.544,237.326 1112.520,239.636 1111.316 C 241.757 1110.211,243.039 1110.059,250.255 1110.059 L 258.461 1110.059 261.611 1112.426 C 265.116 1115.060,267.303 1115.413,268.935 1113.609 C 269.524 1112.959,270.301 1112.426,270.663 1112.426 C 271.024 1112.426,272.313 1111.893,273.527 1111.243 C 275.351 1110.265,276.866 1110.059,282.226 1110.059 C 286.222 1110.059,289.690 1109.738,291.252 1109.224 C 295.961 1107.673,299.804 1107.447,300.494 1108.680 C 301.244 1110.022,312.428 1110.342,312.866 1109.034 C 313.308 1107.712,317.701 1107.039,324.730 1107.216 C 330.556 1107.363,331.889 1107.227,333.120 1106.358 C 335.096 1104.963,345.025 1104.853,346.154 1106.213 C 346.559 1106.701,347.173 1107.101,347.519 1107.101 C 347.864 1107.101,349.230 1107.609,350.553 1108.230 C 351.876 1108.852,354.619 1109.468,356.649 1109.599 C 359.408 1109.777,360.686 1110.164,361.716 1111.132 C 362.718 1112.073,363.831 1112.426,365.794 1112.426 C 367.388 1112.426,368.776 1112.766,369.183 1113.256 C 369.561 1113.712,370.592 1114.265,371.474 1114.485 C 372.356 1114.705,373.524 1115.288,374.070 1115.780 C 375.643 1117.197,377.397 1116.245,378.113 1113.584 C 379.049 1110.110,384.305 1108.451,385.760 1111.170 C 386.774 1113.065,389.130 1113.063,391.519 1111.164 C 393.988 1109.202,393.595 1109.311,395.524 1110.045 L 397.041 1110.622 397.041 1175.704 C 397.041 1239.444,397.018 1240.799,395.897 1241.399 C 394.130 1242.345,3.431 1242.248,2.485 1241.302 C 1.939 1240.755,1.775 1217.478,1.775 1140.129 L 1.775 1039.667 3.698 1037.055 C 5.135 1035.105,6.237 1034.281,8.053 1033.802 C 9.391 1033.449,10.822 1032.756,11.232 1032.261 C 11.643 1031.766,12.326 1031.361,12.749 1031.361 C 13.172 1031.361,14.275 1030.725,15.198 1029.948 C 17.613 1027.915,21.499 1026.849,23.375 1027.704 C 24.864 1028.382,27.811 1027.636,27.811 1026.580 C 27.811 1023.071,35.754 1020.077,40.388 1021.839 C 41.519 1022.269,41.957 1022.024,43.201 1020.270 C 46.499 1015.620,46.901 1015.385,51.544 1015.385 C 55.929 1015.385,57.602 1014.643,60.816 1011.272 C 63.496 1008.461,76.173 1006.896,78.590 1009.077 C 79.946 1010.301,81.618 1010.028,83.956 1008.203 C 84.768 1007.568,86.322 1007.101,87.619 1007.101 C 88.858 1007.101,90.023 1006.855,90.208 1006.555 C 90.393 1006.255,92.340 1005.850,94.533 1005.655 C 96.726 1005.460,99.657 1005.177,101.045 1005.027 C 103.087 1004.806,103.820 1005.004,104.878 1006.062 C 106.424 1007.607,110.113 1007.762,111.704 1006.347 C 113.993 1004.314,117.214 1003.550,123.508 1003.550 C 129.399 1003.550,129.769 1003.477,130.860 1002.090 C 131.960 1000.692,133.464 999.684,136.686 998.187 C 137.500 997.809,138.872 997.130,139.736 996.679 C 141.874 995.561,153.081 995.539,154.391 996.649 C 156.435 998.381,162.886 999.561,164.813 998.556 C 165.778 998.052,166.771 997.639,167.020 997.637 C 167.268 997.635,168.779 996.318,170.379 994.710 C 172.478 992.600,174.141 991.534,176.364 990.874 C 178.057 990.371,179.741 989.723,180.106 989.433 C 180.471 989.144,181.989 988.730,183.481 988.515 C 185.580 988.211,186.709 987.594,188.482 985.777 C 189.742 984.487,191.166 983.432,191.646 983.432 C 192.870 983.432,200.582 981.078,202.367 980.160 C 203.180 979.741,204.911 979.207,206.213 978.973 C 207.515 978.740,209.049 978.139,209.622 977.638 C 210.371 976.984,212.448 976.654,217.018 976.462 C 221.978 976.255,223.633 975.968,224.556 975.154 C 225.207 974.580,226.719 973.936,227.916 973.723 C 229.112 973.510,230.177 973.132,230.282 972.884 C 230.708 971.877,235.679 969.822,237.687 969.822 C 240.030 969.822,242.916 972.351,243.577 974.983 C 244.448 978.452,254.438 976.080,254.438 972.403 C 254.438 971.958,254.970 970.600,255.621 969.385 C 256.348 968.030,256.808 966.032,256.814 964.210 C 256.828 959.638,256.545 959.760,268.097 959.363 C 274.976 959.126,278.934 958.740,280.000 958.202 C 280.998 957.699,283.611 957.396,286.957 957.396 C 291.935 957.396,292.407 957.291,293.602 955.917 C 294.309 955.104,295.372 954.438,295.965 954.438 C 296.759 954.438,297.041 953.987,297.041 952.719 C 297.041 948.709,310.272 945.894,315.385 948.817 C 317.079 949.785,320.710 949.992,320.710 949.120 C 320.710 948.799,321.610 948.161,322.709 947.701 C 323.808 947.242,324.889 946.573,325.111 946.214 C 325.332 945.856,325.943 945.562,326.468 945.562 C 326.992 945.562,327.935 945.096,328.564 944.527 C 330.947 942.366,354.719 942.175,358.140 944.290 M310.472 1293.196 C 311.170 1293.685,311.925 1294.924,312.150 1295.950 C 312.521 1297.639,317.298 1302.959,318.443 1302.959 C 319.195 1302.959,323.156 1305.830,324.695 1307.491 C 328.539 1311.638,328.640 1312.334,328.980 1336.982 C 329.186 1351.903,329.513 1359.866,329.952 1360.651 C 330.316 1361.302,330.805 1362.894,331.040 1364.190 C 332.132 1370.225,337.091 1377.421,342.308 1380.538 C 346.218 1382.875,359.849 1382.670,364.644 1380.202 C 368.185 1378.380,373.373 1374.043,373.373 1372.905 C 373.373 1372.544,373.706 1372.035,374.112 1371.775 C 381.186 1367.250,382.545 1338.770,376.201 1328.018 C 372.296 1321.401,360.304 1317.832,355.621 1321.893 C 354.871 1322.544,353.994 1323.077,353.674 1323.077 C 353.353 1323.077,351.935 1324.142,350.523 1325.444 C 345.303 1330.256,342.650 1327.852,344.645 1320.118 C 345.943 1315.089,347.982 1309.467,348.509 1309.467 C 348.770 1309.467,349.162 1308.735,349.380 1307.840 C 349.761 1306.269,355.304 1300.620,356.509 1300.574 C 356.834 1300.562,358.166 1300.037,359.467 1299.408 C 362.654 1297.869,373.572 1297.732,376.834 1299.191 C 383.190 1302.033,384.448 1302.805,387.218 1305.559 C 391.500 1309.816,395.858 1317.007,395.858 1319.815 C 395.858 1320.340,396.257 1321.540,396.745 1322.484 C 402.073 1332.787,398.027 1361.755,389.075 1377.401 C 388.087 1379.128,386.879 1381.289,386.391 1382.203 C 382.512 1389.466,374.453 1397.577,366.272 1402.450 C 357.642 1407.591,344.396 1407.642,333.928 1402.574 C 330.932 1401.123,323.077 1394.218,323.077 1393.035 C 323.077 1392.705,322.744 1392.299,322.337 1392.133 C 321.627 1391.843,319.589 1388.082,317.488 1383.186 C 316.941 1381.912,316.249 1378.850,315.949 1376.381 C 315.649 1373.913,315.115 1370.030,314.762 1367.751 C 314.409 1365.473,313.907 1358.284,313.647 1351.775 C 312.980 1335.086,311.853 1329.351,308.545 1325.799 C 307.151 1324.302,305.852 1323.077,305.659 1323.077 C 305.038 1323.077,297.374 1317.291,296.302 1316.014 C 294.882 1314.321,295.003 1312.487,296.738 1309.413 C 297.548 1307.978,298.531 1306.139,298.924 1305.325 C 299.316 1304.512,299.962 1303.447,300.359 1302.959 C 300.756 1302.470,302.025 1300.222,303.180 1297.962 C 305.847 1292.741,307.903 1291.397,310.472 1293.196 M126.890 1295.202 C 127.781 1296.925,131.929 1300.592,132.987 1300.592 C 133.300 1300.592,135.658 1301.656,138.228 1302.956 C 140.797 1304.256,143.257 1305.321,143.694 1305.323 C 144.130 1305.324,145.165 1305.858,145.992 1306.509 C 146.820 1307.160,147.808 1307.692,148.189 1307.692 C 149.117 1307.692,152.143 1310.984,153.901 1313.905 L 155.325 1316.272 155.704 1343.195 C 155.981 1362.940,156.342 1372.090,157.057 1377.515 C 158.520 1388.605,158.136 1392.906,155.434 1395.709 C 150.082 1401.261,148.734 1402.765,147.806 1404.217 C 146.534 1406.209,144.104 1406.853,142.304 1405.673 C 140.226 1404.312,140.036 1401.341,139.986 1369.527 C 139.946 1344.083,139.824 1340.315,138.990 1338.757 C 138.467 1337.781,137.869 1336.090,137.661 1335.000 C 136.973 1331.384,130.744 1325.444,127.641 1325.444 C 126.421 1325.444,121.091 1322.625,116.132 1319.358 C 110.694 1315.776,110.271 1314.541,112.947 1310.059 C 114.076 1308.170,116.568 1302.613,116.568 1301.987 C 116.568 1301.625,116.941 1301.019,117.398 1300.640 C 117.854 1300.261,118.398 1299.270,118.607 1298.437 C 119.827 1293.576,125.003 1291.554,126.890 1295.202 M192.432 1294.476 C 194.104 1296.636,198.432 1300.592,199.122 1300.592 C 199.525 1300.592,200.165 1300.965,200.544 1301.421 C 200.922 1301.877,201.932 1302.427,202.788 1302.641 C 203.644 1302.856,205.001 1303.548,205.802 1304.179 C 206.604 1304.809,207.605 1305.325,208.027 1305.325 C 211.109 1305.325,218.574 1312.549,219.817 1316.733 C 221.890 1323.716,222.152 1326.328,221.412 1332.671 C 219.411 1349.818,219.227 1369.538,220.962 1380.817 C 221.423 1383.812,221.500 1386.134,221.169 1387.029 C 220.697 1388.305,218.973 1399.165,218.946 1401.036 C 218.902 1404.015,217.966 1404.142,195.971 1404.142 C 171.854 1404.142,172.438 1404.266,174.116 1399.512 C 174.687 1397.894,175.313 1395.277,175.506 1393.699 C 175.892 1390.556,177.970 1383.572,178.869 1382.396 C 179.289 1381.847,182.581 1381.654,191.640 1381.648 C 198.354 1381.643,204.160 1381.439,204.543 1381.195 C 205.071 1380.859,205.131 1375.215,204.791 1357.915 C 204.218 1328.804,205.102 1330.896,190.473 1324.038 C 188.651 1323.184,186.987 1322.485,186.775 1322.485 C 186.564 1322.485,185.884 1322.019,185.266 1321.450 C 184.647 1320.880,182.783 1319.252,181.124 1317.831 C 177.653 1314.860,177.535 1314.201,179.637 1309.579 C 180.479 1307.728,181.576 1305.281,182.075 1304.142 C 182.575 1303.003,183.483 1301.086,184.095 1299.883 C 184.707 1298.679,185.207 1297.281,185.207 1296.776 C 185.207 1294.041,190.733 1292.282,192.432 1294.476 M249.366 1294.421 C 249.877 1294.932,250.296 1295.611,250.296 1295.929 C 250.296 1297.536,259.122 1302.959,261.737 1302.959 C 262.199 1302.959,262.908 1303.358,263.314 1303.846 C 263.719 1304.334,264.329 1304.734,264.671 1304.734 C 267.800 1304.734,276.923 1311.586,276.923 1313.936 C 276.923 1314.440,277.378 1315.704,277.935 1316.745 C 278.845 1318.450,278.953 1321.468,279.017 1347.041 C 279.078 1371.366,279.229 1375.996,280.068 1379.290 C 281.892 1386.450,281.465 1391.696,278.784 1395.088 C 271.112 1404.793,266.800 1407.799,264.201 1405.254 C 263.825 1404.885,263.578 1393.976,263.524 1375.266 C 263.452 1350.311,263.295 1345.324,262.489 1342.331 C 261.966 1340.392,261.538 1338.279,261.538 1337.636 C 261.538 1333.747,257.819 1328.980,253.002 1326.694 C 244.905 1322.851,242.829 1321.804,241.392 1320.837 C 240.563 1320.279,238.941 1319.222,237.787 1318.488 C 233.803 1315.953,233.745 1314.186,237.402 1306.805 C 238.530 1304.527,240.335 1300.799,241.412 1298.521 C 242.490 1296.243,243.664 1294.183,244.023 1293.944 C 245.176 1293.174,248.408 1293.463,249.366 1294.421 M31.601 1325.080 C 31.428 1325.530,31.370 1334.650,31.472 1345.346 C 31.674 1366.558,31.355 1364.341,35.424 1372.742 C 39.694 1381.555,48.053 1385.420,59.722 1383.977 C 77.226 1381.814,87.546 1361.706,83.190 1338.256 C 82.715 1335.702,81.950 1333.172,81.490 1332.634 C 81.030 1332.097,80.502 1331.227,80.317 1330.701 C 79.712 1328.985,74.914 1325.629,72.075 1324.937 C 67.730 1323.878,32.014 1324.004,31.601 1325.080 " stroke="none" fill="#ffffff" fill-rule="evenodd"></path><path id="path1" d="M3.106 270.266 L 3.254 540.533 11.067 540.310 C 18.134 540.109,19.110 540.208,21.292 541.346 C 24.305 542.916,26.062 542.936,27.811 541.420 C 28.561 540.769,29.383 540.237,29.636 540.237 C 29.890 540.237,30.267 539.704,30.473 539.053 C 30.680 538.402,31.230 537.870,31.697 537.870 C 32.163 537.870,32.544 537.462,32.544 536.964 C 32.544 536.465,33.010 535.884,33.580 535.671 C 34.149 535.459,34.963 534.802,35.389 534.211 C 36.568 532.572,45.378 532.651,47.499 534.320 C 50.079 536.349,52.783 535.899,55.784 532.941 C 57.213 531.531,59.604 529.787,61.096 529.065 C 62.589 528.343,64.130 527.365,64.522 526.893 C 64.913 526.422,65.826 526.036,66.550 526.036 C 67.274 526.036,68.480 525.503,69.231 524.852 C 70.020 524.168,71.445 523.669,72.608 523.669 C 73.715 523.669,75.803 523.130,77.247 522.472 C 79.628 521.388,80.955 521.286,91.425 521.384 C 102.071 521.484,103.079 521.403,104.298 520.351 C 110.241 515.223,111.998 514.842,132.840 514.147 C 142.604 513.821,151.730 513.718,153.122 513.917 C 155.152 514.207,156.089 514.007,157.856 512.908 C 161.121 510.878,171.956 510.852,174.103 512.870 C 174.882 513.602,175.836 514.201,176.222 514.201 C 176.607 514.201,176.923 514.464,176.923 514.785 C 176.923 515.106,177.823 515.745,178.922 516.204 C 180.021 516.663,181.104 517.336,181.329 517.700 C 181.554 518.064,182.585 518.756,183.620 519.238 C 184.656 519.721,186.302 520.645,187.278 521.292 C 189.254 522.601,191.518 523.669,192.317 523.669 C 192.605 523.669,193.101 524.135,193.420 524.704 C 193.908 525.578,194.998 525.759,200.402 525.861 C 203.923 525.928,207.217 525.995,207.721 526.009 C 208.225 526.024,210.222 527.562,212.159 529.428 C 215.489 532.636,216.440 533.330,220.209 535.302 C 221.072 535.754,221.929 536.517,222.113 536.997 C 222.359 537.639,223.436 537.870,226.181 537.870 C 228.769 537.870,230.363 538.185,231.377 538.897 C 232.467 539.662,234.510 540.004,239.385 540.237 L 245.929 540.549 249.148 543.098 C 250.918 544.499,252.969 546.405,253.704 547.332 C 257.574 552.210,269.884 554.434,274.206 551.036 C 276.239 549.437,278.045 549.344,279.957 550.740 C 280.736 551.309,281.904 552.068,282.551 552.427 C 284.127 553.299,284.301 555.809,283.104 560.419 C 282.564 562.499,282.026 565.628,281.909 567.371 C 281.607 571.876,281.187 572.189,275.454 572.189 C 267.129 572.189,265.089 572.653,265.089 574.546 C 265.089 575.428,264.556 576.764,263.905 577.515 C 263.254 578.265,262.722 579.389,262.722 580.011 C 262.722 583.523,260.106 584.615,251.692 584.615 C 246.213 584.615,245.495 584.491,244.833 583.432 C 243.933 581.991,238.613 581.758,236.518 583.068 C 235.587 583.649,231.777 584.014,223.373 584.326 C 216.864 584.567,210.340 584.893,208.876 585.049 C 203.327 585.641,187.093 584.203,183.728 582.821 C 183.077 582.554,181.229 582.209,179.622 582.056 C 177.869 581.889,176.417 581.391,175.995 580.814 C 173.547 577.467,165.089 579.551,165.089 583.501 C 165.089 585.480,163.698 586.982,161.865 586.982 C 161.114 586.982,160.168 587.382,159.763 587.870 C 159.169 588.586,157.332 588.757,150.269 588.757 C 141.790 588.757,141.455 588.805,139.753 590.237 C 138.786 591.050,137.796 591.716,137.554 591.716 C 137.311 591.716,136.789 592.158,136.394 592.699 C 135.999 593.239,134.372 593.881,132.779 594.125 C 124.830 595.344,120.472 597.932,119.815 601.822 C 119.233 605.263,114.459 610.643,111.982 610.648 C 111.250 610.650,110.651 610.918,110.651 611.245 C 110.651 612.083,105.094 617.751,104.272 617.751 C 103.898 617.751,103.307 618.284,102.959 618.935 C 102.610 619.586,101.838 620.118,101.242 620.118 C 100.647 620.118,99.525 620.610,98.748 621.212 C 97.972 621.813,96.616 622.481,95.735 622.696 C 92.981 623.368,91.343 625.429,90.964 628.698 C 90.488 632.803,88.893 637.385,87.532 638.556 C 86.904 639.097,86.391 639.788,86.391 640.092 C 86.391 641.455,83.568 643.727,81.376 644.129 C 80.082 644.366,78.665 644.919,78.227 645.357 C 77.080 646.504,62.392 646.498,61.716 645.350 C 60.167 642.719,55.795 643.790,52.088 647.708 C 50.126 649.783,48.521 651.897,48.521 652.406 C 48.521 654.170,47.338 655.527,45.439 655.944 C 44.389 656.175,43.105 656.629,42.586 656.953 C 41.491 657.637,38.019 656.108,37.480 654.703 C 37.049 653.579,34.077 653.600,33.136 654.734 C 32.731 655.222,32.046 655.621,31.615 655.621 C 31.183 655.621,30.112 656.287,29.234 657.101 C 28.356 657.914,27.306 658.580,26.900 658.580 C 26.494 658.580,26.016 658.962,25.837 659.428 C 25.620 659.993,24.126 660.413,21.371 660.685 C 18.943 660.924,17.113 661.398,16.947 661.831 C 16.791 662.237,15.910 662.759,14.989 662.990 C 14.067 663.221,12.851 663.854,12.285 664.397 C 11.720 664.940,10.712 665.907,10.046 666.545 C 9.243 667.315,7.895 667.743,6.045 667.816 L 3.254 667.927 3.100 693.111 L 2.946 718.295 4.276 719.007 C 7.680 720.828,12.093 720.024,14.875 717.073 C 17.782 713.991,22.102 712.129,23.948 713.163 C 24.746 713.609,25.143 713.534,25.518 712.865 C 25.793 712.372,26.902 711.803,27.982 711.601 C 31.084 711.019,34.729 707.230,35.209 704.087 C 35.440 702.577,36.277 700.684,37.197 699.590 L 38.787 697.701 46.169 697.585 L 53.550 697.469 56.052 695.184 C 58.338 693.096,58.847 692.897,61.969 692.874 C 69.700 692.817,76.059 692.177,76.970 691.365 C 78.621 689.893,87.686 690.220,88.664 691.787 C 89.616 693.311,94.559 693.131,96.354 691.506 C 96.946 690.971,98.221 690.533,99.188 690.533 C 100.434 690.533,101.664 689.842,103.418 688.156 C 105.363 686.287,106.494 685.701,108.715 685.412 C 110.268 685.209,111.906 684.753,112.355 684.397 C 113.837 683.225,134.982 683.332,136.305 684.518 C 137.994 686.034,159.693 685.990,161.375 684.467 C 162.004 683.898,162.975 683.432,163.531 683.432 C 164.088 683.432,165.602 682.383,166.897 681.102 C 168.191 679.820,169.845 678.590,170.572 678.367 C 171.299 678.144,172.160 677.758,172.485 677.508 C 172.811 677.259,174.675 676.707,176.627 676.282 C 178.659 675.840,180.508 675.053,180.951 674.441 C 181.614 673.524,182.634 673.373,188.136 673.373 C 193.290 673.373,194.615 673.199,194.889 672.485 C 195.076 671.997,195.927 671.598,196.780 671.598 C 197.809 671.598,199.191 670.751,200.887 669.083 C 205.076 664.963,206.856 663.905,209.607 663.905 C 210.293 663.905,211.274 663.534,211.788 663.080 C 212.947 662.056,238.586 661.264,242.308 662.137 C 246.574 663.138,253.727 661.654,254.161 659.677 C 254.633 657.526,255.425 656.984,258.580 656.651 C 262.548 656.233,268.784 654.425,270.033 653.330 C 271.604 651.951,277.343 652.001,278.367 653.402 C 279.436 654.864,284.278 654.784,287.278 653.254 C 288.555 652.604,290.742 652.071,292.139 652.071 C 293.548 652.071,295.662 651.544,296.887 650.888 C 298.101 650.237,299.631 649.700,300.287 649.696 C 300.943 649.691,302.665 649.274,304.114 648.769 C 305.698 648.218,308.650 647.866,311.511 647.886 C 314.130 647.905,322.506 647.771,330.125 647.588 C 343.477 647.268,344.037 647.300,345.633 648.480 C 348.033 650.254,356.690 650.282,358.284 648.521 C 359.006 647.723,360.106 647.337,361.664 647.337 C 363.442 647.337,364.338 646.947,365.566 645.636 C 367.666 643.395,369.298 642.604,371.820 642.604 C 372.961 642.604,374.059 642.337,374.260 642.012 C 374.461 641.686,375.146 641.420,375.783 641.420 C 376.419 641.420,377.458 641.096,378.092 640.700 C 379.001 640.132,379.781 640.140,381.782 640.735 C 387.103 642.318,386.865 642.356,387.325 639.855 C 387.556 638.600,388.239 636.939,388.843 636.163 C 389.447 635.387,389.941 634.509,389.941 634.211 C 389.941 633.461,393.033 630.811,393.935 630.788 C 394.526 630.773,394.675 567.288,394.675 315.385 L 394.675 0.000 198.816 0.000 L 2.957 0.000 3.106 270.266 M393.301 730.621 C 392.458 734.673,389.866 736.487,384.434 736.826 C 381.424 737.014,378.905 737.499,378.046 738.056 C 377.266 738.562,374.979 739.159,372.965 739.383 C 370.708 739.633,369.182 740.103,368.989 740.605 C 368.817 741.053,368.156 741.420,367.520 741.420 C 366.883 741.420,365.572 742.086,364.605 742.899 C 363.638 743.713,362.353 744.390,361.749 744.403 C 361.022 744.419,360.183 745.424,359.268 747.375 C 358.259 749.525,357.355 750.545,355.926 751.142 C 354.849 751.592,353.740 752.327,353.463 752.776 C 352.154 754.896,349.510 756.213,346.564 756.213 C 344.557 756.213,343.211 756.551,342.440 757.249 C 341.623 757.988,340.425 758.256,338.251 758.186 C 331.737 757.978,324.260 758.664,324.260 759.470 C 324.260 759.899,323.395 760.941,322.337 761.785 C 321.280 762.629,319.992 763.718,319.477 764.204 C 318.751 764.890,316.912 765.089,311.302 765.089 C 302.935 765.089,302.791 765.142,299.432 769.496 C 297.299 772.261,296.600 772.781,295.017 772.781 C 293.982 772.781,292.848 773.069,292.495 773.422 C 291.825 774.093,284.442 773.872,281.592 773.095 C 280.309 772.746,279.609 773.083,277.450 775.087 C 276.021 776.414,274.317 777.503,273.663 777.507 C 273.009 777.511,272.141 778.047,271.735 778.698 C 270.719 780.324,265.094 780.378,262.813 778.783 C 259.941 776.775,254.547 776.392,240.237 777.179 C 233.147 777.570,230.597 777.934,229.003 778.783 C 226.328 780.208,222.688 780.177,218.935 778.698 C 217.284 778.047,215.446 777.515,214.851 777.515 C 214.256 777.515,213.068 776.963,212.210 776.289 C 209.283 773.986,190.453 775.248,181.702 778.333 C 176.443 780.187,174.830 780.251,172.485 778.698 C 170.036 777.076,164.946 777.076,162.883 778.698 C 162.056 779.349,160.519 779.882,159.467 779.882 C 158.416 779.882,156.879 779.349,156.052 778.698 C 155.224 778.047,154.190 777.514,153.753 777.513 C 153.316 777.511,152.160 777.035,151.183 776.454 C 144.800 772.656,126.627 776.283,126.627 781.356 C 126.627 783.517,119.893 786.982,115.695 786.982 C 112.571 786.982,109.655 788.513,108.107 790.966 C 107.846 791.379,107.147 791.716,106.552 791.716 C 105.957 791.716,105.170 792.078,104.803 792.520 C 103.577 793.997,97.313 794.231,94.815 792.892 C 91.943 791.353,88.675 791.356,87.278 792.899 C 86.371 793.902,85.456 794.083,81.287 794.083 L 76.367 794.083 72.355 797.936 C 70.148 800.055,67.921 802.185,67.406 802.670 C 65.827 804.153,56.998 803.907,56.509 802.367 C 55.978 800.694,49.371 800.641,47.269 802.292 C 46.290 803.062,44.590 803.474,41.716 803.640 C 37.322 803.893,34.962 805.327,34.013 808.319 C 33.791 809.016,32.651 809.960,31.452 810.439 C 27.218 812.130,25.200 813.342,23.117 815.443 C 21.437 817.138,20.417 817.638,18.122 817.893 C 16.536 818.070,15.063 818.497,14.850 818.843 C 14.302 819.730,9.308 823.053,8.504 823.066 C 8.137 823.072,7.519 823.461,7.130 823.929 C 6.741 824.398,5.710 824.864,4.838 824.965 L 3.254 825.148 3.254 856.509 L 3.254 887.870 6.213 888.024 C 11.049 888.277,11.757 888.587,12.298 890.688 C 12.922 893.109,17.938 893.873,19.920 891.849 C 21.358 890.380,25.077 888.166,26.107 888.166 C 27.318 888.166,32.544 883.096,32.544 881.921 C 32.544 879.704,36.511 876.902,38.317 877.844 C 39.210 878.310,40.396 878.693,40.953 878.695 C 41.510 878.697,42.515 879.288,43.186 880.008 C 44.604 881.530,50.884 881.962,51.348 880.570 C 53.007 875.595,61.538 876.535,66.722 882.263 C 68.834 884.597,70.377 885.799,71.260 885.799 C 71.996 885.799,73.080 886.331,73.669 886.982 C 75.007 888.461,77.773 888.514,79.142 887.086 C 81.650 884.470,82.821 882.528,82.500 881.516 C 81.882 879.568,82.848 877.213,84.955 875.532 L 87.035 873.872 89.394 875.102 C 90.691 875.778,92.299 876.331,92.966 876.331 C 93.633 876.331,95.303 877.252,96.675 878.376 C 98.234 879.653,100.119 880.573,101.696 880.825 C 103.085 881.047,104.585 881.593,105.029 882.037 C 105.474 882.481,107.786 883.221,110.167 883.681 C 112.549 884.140,115.260 884.810,116.193 885.169 C 119.149 886.307,134.638 886.039,136.870 884.812 C 138.353 883.996,140.740 883.706,148.017 883.455 C 155.707 883.190,157.469 882.961,158.418 882.101 C 159.944 880.718,163.072 880.789,164.927 882.249 C 170.055 886.282,175.546 882.644,175.627 875.161 C 175.672 871.037,175.871 870.015,176.746 869.412 C 177.332 869.009,178.136 868.400,178.535 868.059 C 180.092 866.724,182.563 866.272,188.313 866.272 C 196.390 866.272,199.060 865.019,203.793 859.006 C 204.653 857.913,206.542 856.855,209.418 855.855 C 213.334 854.493,214.362 853.776,217.174 850.444 C 217.517 850.037,218.425 849.704,219.191 849.704 C 219.957 849.704,220.727 849.331,220.901 848.876 C 221.076 848.420,222.354 847.855,223.741 847.621 C 225.128 847.387,226.629 846.828,227.078 846.379 C 227.526 845.931,228.604 845.385,229.473 845.167 C 230.342 844.949,231.371 844.453,231.759 844.065 C 232.147 843.677,233.481 843.196,234.724 842.997 C 236.345 842.737,237.821 841.822,239.955 839.753 C 244.065 835.768,244.750 835.503,250.931 835.503 C 255.422 835.503,256.510 835.322,257.131 834.474 C 257.715 833.675,258.986 833.397,262.817 833.227 C 265.900 833.090,268.085 832.703,268.639 832.196 C 271.604 829.482,273.039 828.402,273.683 828.402 C 274.083 828.402,274.743 828.003,275.148 827.515 C 276.123 826.340,278.477 826.380,278.937 827.579 C 279.694 829.551,296.390 826.990,299.670 824.399 C 302.730 821.981,304.141 819.526,304.151 816.601 C 304.167 811.819,305.204 811.388,318.639 810.584 C 330.416 809.880,334.843 809.278,336.982 808.092 C 337.959 807.551,339.031 807.106,339.366 807.104 C 339.700 807.102,340.430 806.568,340.987 805.917 C 341.544 805.266,342.494 804.734,343.098 804.734 C 343.701 804.734,344.656 804.225,345.218 803.604 C 345.781 802.982,346.887 802.311,347.677 802.113 C 348.466 801.915,349.112 801.512,349.112 801.218 C 349.112 800.924,350.092 800.360,351.290 799.965 C 352.487 799.570,354.080 798.518,354.828 797.629 C 358.052 793.797,361.228 792.988,374.260 792.678 C 383.766 792.452,386.480 792.201,388.055 791.403 C 389.830 790.503,390.690 790.469,393.491 791.191 C 394.270 791.392,394.397 787.609,394.532 760.207 C 394.670 732.006,394.394 725.363,393.301 730.621 M330.852 945.582 C 330.083 946.222,328.993 946.746,328.429 946.746 C 327.864 946.746,326.920 947.278,326.331 947.929 C 325.742 948.580,324.700 949.112,324.015 949.112 C 323.330 949.112,322.418 949.675,321.989 950.364 C 321.006 951.937,314.968 951.765,313.141 950.112 C 311.653 948.765,304.052 948.683,302.957 950.002 C 302.550 950.492,301.386 951.107,300.369 951.369 C 298.892 951.750,298.461 952.222,298.225 953.716 C 297.692 957.083,294.783 958.580,288.774 958.580 C 284.889 958.580,283.351 958.823,282.232 959.615 C 281.015 960.477,278.990 960.701,270.160 960.947 L 259.550 961.243 259.037 963.018 C 258.755 963.994,258.284 966.366,257.992 968.289 C 257.699 970.211,257.134 971.986,256.735 972.233 C 256.336 972.479,255.722 973.543,255.371 974.597 C 254.644 976.783,254.107 977.129,249.978 978.066 C 246.094 978.948,243.446 977.906,241.149 974.592 C 240.079 973.048,239.037 972.194,238.233 972.203 C 235.917 972.230,232.603 973.229,231.640 974.192 C 231.115 974.718,229.946 975.148,229.044 975.148 C 228.141 975.148,226.920 975.680,226.331 976.331 C 225.449 977.306,224.509 977.515,220.995 977.515 C 217.521 977.515,215.698 977.910,211.175 979.644 C 208.121 980.815,204.556 981.976,203.254 982.224 C 201.953 982.472,200.089 983.109,199.112 983.641 C 198.136 984.173,196.121 984.610,194.636 984.612 C 192.266 984.615,191.696 984.884,189.994 986.806 C 187.825 989.256,185.273 990.569,180.470 991.707 C 178.682 992.130,176.694 992.838,176.052 993.280 C 175.410 993.721,174.504 994.083,174.038 994.083 C 173.572 994.083,172.233 995.099,171.063 996.340 C 166.301 1001.392,161.782 1002.525,156.783 999.920 C 152.262 997.563,137.395 997.892,136.444 1000.369 C 136.272 1000.817,135.745 1001.183,135.272 1001.183 C 134.799 1001.183,133.500 1002.249,132.386 1003.550 L 130.360 1005.917 122.963 1005.917 C 116.415 1005.917,115.409 1006.053,114.201 1007.101 C 113.451 1007.751,112.545 1008.286,112.188 1008.288 C 111.831 1008.290,110.823 1008.664,109.949 1009.120 C 108.156 1010.056,104.142 1008.779,104.142 1007.273 C 104.142 1006.316,101.537 1006.276,99.813 1007.207 C 99.102 1007.591,95.812 1008.100,92.501 1008.339 C 87.740 1008.683,86.124 1009.038,84.775 1010.035 C 83.611 1010.895,82.327 1011.259,80.736 1011.181 C 79.452 1011.117,75.044 1011.047,70.940 1011.025 L 63.477 1010.985 61.402 1013.185 C 60.261 1014.395,59.036 1015.385,58.679 1015.385 C 58.322 1015.385,57.745 1015.917,57.396 1016.568 C 56.851 1017.587,56.158 1017.751,52.394 1017.751 C 47.623 1017.751,46.154 1018.089,46.154 1019.187 C 46.154 1021.828,41.549 1025.546,40.237 1023.964 C 38.809 1022.244,32.744 1022.768,31.682 1024.704 C 29.146 1029.326,28.287 1029.829,22.772 1029.925 C 18.299 1030.003,17.574 1030.167,16.795 1031.279 C 16.301 1031.985,15.270 1032.544,14.463 1032.544 C 13.668 1032.544,13.018 1032.799,13.018 1033.111 C 13.018 1033.422,11.287 1034.539,9.172 1035.592 C 7.056 1036.644,5.325 1037.790,5.325 1038.137 C 5.325 1038.484,4.792 1039.102,4.140 1039.509 C 2.961 1040.245,2.956 1040.760,3.105 1140.391 L 3.254 1240.533 198.817 1240.533 L 394.379 1240.533 394.529 1175.888 C 394.612 1140.333,394.560 1111.243,394.414 1111.243 C 394.268 1111.243,393.135 1112.173,391.897 1113.311 C 389.317 1115.680,388.318 1115.845,386.276 1114.238 C 383.143 1111.774,379.290 1112.929,379.290 1116.331 C 379.290 1118.598,375.470 1118.861,371.718 1116.854 C 370.188 1116.034,367.930 1115.200,366.703 1115.001 C 365.475 1114.801,364.328 1114.406,364.153 1114.123 C 363.978 1113.841,363.355 1113.609,362.767 1113.609 C 362.179 1113.609,361.063 1113.114,360.287 1112.508 C 359.291 1111.731,357.526 1111.322,354.287 1111.117 C 351.326 1110.931,349.331 1110.502,348.665 1109.910 C 346.891 1108.333,343.091 1107.552,339.023 1107.929 C 336.924 1108.124,330.747 1108.444,325.296 1108.639 C 319.845 1108.835,315.385 1109.233,315.385 1109.524 C 315.385 1110.735,310.109 1112.551,307.555 1112.218 C 301.934 1111.486,300.534 1111.065,299.662 1109.845 C 298.826 1108.675,298.702 1108.655,298.008 1109.581 C 297.422 1110.362,295.902 1110.660,291.084 1110.940 C 287.689 1111.137,283.979 1111.528,282.840 1111.809 C 281.701 1112.089,278.773 1112.620,276.332 1112.988 C 272.505 1113.564,271.603 1113.942,269.764 1115.737 C 267.714 1117.739,264.497 1118.207,264.497 1116.504 C 264.497 1116.214,264.113 1115.976,263.643 1115.976 C 263.173 1115.976,262.425 1115.456,261.980 1114.821 C 260.332 1112.468,248.144 1111.597,240.328 1113.273 C 237.362 1113.909,234.691 1113.956,227.606 1113.497 C 213.799 1112.603,208.684 1113.134,206.324 1115.705 C 204.184 1118.037,198.594 1118.735,197.041 1116.864 C 196.636 1116.376,195.815 1115.976,195.217 1115.976 C 194.619 1115.976,193.653 1115.476,193.070 1114.864 C 191.656 1113.378,188.923 1112.975,178.559 1112.727 C 168.799 1112.494,166.741 1111.766,165.975 1108.276 C 165.674 1106.908,165.263 1106.509,164.154 1106.509 C 163.366 1106.509,162.163 1105.950,161.479 1105.266 C 160.685 1104.472,159.047 1103.862,156.938 1103.576 C 151.953 1102.900,151.625 1102.243,151.762 1093.206 C 151.902 1083.939,151.848 1084.010,159.063 1083.500 C 162.891 1083.229,164.706 1082.834,165.524 1082.094 C 166.149 1081.528,166.865 1081.065,167.113 1081.065 C 167.362 1081.065,168.242 1080.533,169.069 1079.882 C 170.353 1078.872,171.470 1078.698,176.678 1078.698 C 181.156 1078.698,182.907 1078.487,183.255 1077.904 C 183.515 1077.467,184.458 1076.639,185.350 1076.064 C 186.336 1075.428,187.207 1074.144,187.573 1072.786 C 187.904 1071.557,188.572 1070.222,189.058 1069.819 C 189.543 1069.416,189.941 1068.770,189.941 1068.384 C 189.941 1067.998,191.000 1066.899,192.294 1065.942 C 193.588 1064.985,194.653 1064.024,194.661 1063.808 C 194.668 1063.591,196.039 1062.413,197.707 1061.188 C 199.422 1059.929,201.097 1058.108,201.561 1056.996 C 202.013 1055.914,202.670 1055.030,203.021 1055.030 C 203.372 1055.030,204.337 1054.497,205.164 1053.846 C 205.991 1053.195,207.499 1052.663,208.514 1052.663 C 210.255 1052.663,213.604 1050.074,213.612 1048.722 C 213.614 1048.448,214.679 1047.322,215.979 1046.218 C 217.279 1045.115,218.343 1043.891,218.343 1043.499 C 218.343 1041.713,220.653 1040.721,225.549 1040.404 C 228.257 1040.228,230.873 1039.747,231.361 1039.335 C 231.853 1038.919,234.341 1038.484,236.939 1038.358 C 239.931 1038.214,241.716 1037.870,241.869 1037.409 C 242.200 1036.417,245.695 1032.872,247.526 1031.673 C 248.812 1030.830,250.503 1030.716,259.277 1030.877 C 270.542 1031.084,269.156 1031.419,273.457 1027.451 C 274.707 1026.298,279.039 1026.233,280.349 1027.347 C 280.906 1027.820,282.226 1028.550,283.284 1028.968 C 284.342 1029.387,285.207 1029.947,285.207 1030.213 C 285.207 1030.479,286.427 1030.880,287.917 1031.103 C 289.407 1031.327,290.761 1031.859,290.925 1032.287 C 291.089 1032.714,292.018 1033.238,292.989 1033.452 C 293.960 1033.665,294.898 1034.214,295.074 1034.671 C 295.467 1035.695,302.673 1035.853,303.292 1034.851 C 303.513 1034.492,304.597 1033.822,305.699 1033.361 C 307.597 1032.568,311.204 1027.916,311.231 1026.226 C 311.249 1025.111,312.995 1023.669,314.326 1023.669 C 314.999 1023.669,315.862 1023.243,316.242 1022.722 C 316.711 1022.080,318.253 1021.669,321.025 1021.447 C 325.522 1021.086,328.614 1018.767,330.486 1014.349 C 330.934 1013.291,331.580 1012.426,331.922 1012.426 C 332.265 1012.426,332.544 1012.076,332.544 1011.647 C 332.544 1010.190,336.686 1007.102,338.667 1007.082 C 339.693 1007.071,341.024 1006.690,341.625 1006.235 C 343.751 1004.625,349.790 1004.469,354.127 1005.912 L 358.053 1007.219 360.941 1005.976 C 362.529 1005.293,364.123 1004.734,364.483 1004.734 C 364.842 1004.734,365.898 1004.171,366.829 1003.483 C 369.034 1001.853,377.136 1002.014,378.378 1003.713 C 379.412 1005.127,387.050 1005.191,388.208 1003.795 C 388.934 1002.921,390.753 1002.855,393.491 1003.604 C 394.479 1003.874,395.189 952.349,394.211 951.371 C 393.662 950.822,394.138 950.826,380.214 951.265 C 370.345 951.577,369.543 951.524,368.798 950.504 C 368.235 949.734,367.178 949.386,365.245 949.332 C 363.296 949.279,362.222 948.920,361.560 948.102 C 361.045 947.467,359.750 946.772,358.680 946.559 C 357.611 946.345,356.333 945.767,355.841 945.274 C 354.776 944.209,347.935 944.018,346.927 945.025 C 346.460 945.493,345.946 945.493,345.073 945.025 C 342.848 943.834,332.461 944.241,330.852 945.582 M10.059 1296.062 C 10.059 1296.825,9.527 1297.932,8.876 1298.521 C 8.225 1299.110,7.692 1300.219,7.692 1300.985 C 7.692 1301.751,7.160 1302.834,6.509 1303.392 C 5.858 1303.949,5.325 1305.014,5.325 1305.759 C 5.325 1306.503,4.793 1307.568,4.142 1308.125 C 3.491 1308.683,2.959 1309.590,2.959 1310.142 C 2.959 1311.933,2.265 1313.018,1.120 1313.018 C 0.504 1313.018,0.000 1313.417,0.000 1313.905 C 0.000 1314.393,0.344 1314.793,0.764 1314.793 C 1.184 1314.793,2.507 1315.858,3.704 1317.160 C 4.901 1318.462,6.051 1319.527,6.260 1319.527 C 7.045 1319.527,12.426 1324.401,12.426 1325.111 C 12.426 1325.519,12.959 1326.334,13.609 1326.923 C 14.424 1327.660,14.794 1328.749,14.797 1330.417 C 14.799 1331.839,15.286 1333.574,15.976 1334.615 C 17.065 1336.259,17.152 1337.415,17.156 1350.249 C 17.159 1361.814,17.309 1364.272,18.059 1365.102 C 18.636 1365.740,19.085 1367.874,19.312 1371.065 C 19.512 1373.886,20.131 1377.059,20.742 1378.402 C 21.335 1379.704,21.976 1381.741,22.168 1382.929 C 22.360 1384.116,22.892 1385.400,23.350 1385.780 C 23.809 1386.161,24.352 1387.234,24.556 1388.166 C 24.761 1389.097,25.310 1390.176,25.778 1390.564 C 26.245 1390.952,26.627 1391.530,26.627 1391.850 C 26.627 1392.771,34.696 1400.592,35.647 1400.592 C 36.119 1400.592,37.119 1401.124,37.870 1401.775 C 38.620 1402.426,39.860 1402.959,40.625 1402.959 C 41.390 1402.959,43.010 1403.491,44.224 1404.142 C 47.425 1405.857,57.469 1405.857,60.059 1404.142 C 61.036 1403.495,62.659 1402.965,63.667 1402.962 C 64.675 1402.960,66.113 1402.426,66.864 1401.775 C 67.614 1401.124,68.705 1400.592,69.286 1400.592 C 69.868 1400.592,70.516 1400.315,70.725 1399.976 C 70.934 1399.637,72.082 1398.739,73.275 1397.980 C 75.855 1396.338,81.943 1390.272,84.024 1387.271 C 84.837 1386.097,85.887 1384.720,86.357 1384.212 C 86.827 1383.704,87.893 1381.922,88.727 1380.253 C 89.560 1378.584,90.707 1376.561,91.275 1375.756 C 91.843 1374.951,92.308 1373.722,92.308 1373.025 C 92.308 1372.328,92.840 1371.080,93.491 1370.253 C 94.142 1369.425,94.676 1368.125,94.678 1367.362 C 94.681 1366.600,95.211 1365.178,95.858 1364.201 C 96.562 1363.138,97.035 1361.425,97.038 1359.929 C 97.040 1358.545,97.600 1356.362,98.295 1355.027 C 100.209 1351.355,100.271 1325.222,98.374 1321.593 C 97.695 1320.294,96.853 1318.565,96.503 1317.751 C 95.194 1314.710,89.930 1308.876,88.495 1308.876 C 88.076 1308.876,87.099 1308.382,86.322 1307.778 C 85.546 1307.174,83.846 1306.486,82.544 1306.249 C 81.243 1306.011,79.778 1305.459,79.290 1305.022 C 78.580 1304.386,72.865 1304.189,50.801 1304.037 C 26.412 1303.868,23.072 1303.735,22.103 1302.890 C 21.500 1302.364,20.228 1301.749,19.277 1301.522 C 17.274 1301.044,13.609 1297.308,13.609 1295.742 C 13.609 1294.950,13.151 1294.675,11.834 1294.675 C 10.367 1294.675,10.059 1294.915,10.059 1296.062 M121.893 1295.778 C 121.893 1296.385,121.361 1297.559,120.710 1298.386 C 120.059 1299.214,119.527 1300.279,119.527 1300.753 C 119.527 1301.227,118.994 1302.293,118.343 1303.120 C 117.692 1303.948,117.160 1305.184,117.160 1305.868 C 117.160 1306.552,116.627 1307.568,115.976 1308.125 C 115.325 1308.683,114.793 1309.748,114.793 1310.492 C 114.793 1311.237,114.264 1312.299,113.618 1312.852 C 112.469 1313.835,114.352 1317.160,116.057 1317.160 C 116.663 1317.160,121.772 1320.626,122.209 1321.333 C 122.399 1321.641,123.138 1321.895,123.851 1321.897 C 124.565 1321.900,125.947 1322.430,126.923 1323.077 C 127.899 1323.724,129.152 1324.254,129.707 1324.256 C 131.734 1324.264,138.462 1329.810,138.462 1331.472 C 138.462 1331.909,139.007 1333.283,139.673 1334.526 C 140.552 1336.167,140.982 1338.393,141.242 1342.655 C 141.474 1346.479,141.877 1348.755,142.397 1349.187 C 143.615 1350.197,143.551 1375.635,142.327 1377.254 C 141.073 1378.911,141.055 1393.248,142.304 1395.642 C 142.809 1396.610,143.190 1398.909,143.192 1401.001 C 143.197 1405.940,143.594 1405.948,147.986 1401.098 C 150.070 1398.796,152.774 1395.856,153.994 1394.563 C 156.642 1391.760,157.278 1383.940,155.193 1379.825 C 154.276 1378.015,154.151 1374.804,153.964 1348.225 C 153.764 1319.804,153.707 1318.534,152.532 1315.976 C 151.228 1313.139,147.552 1308.876,146.409 1308.876 C 146.031 1308.876,145.087 1308.382,144.311 1307.778 C 143.534 1307.174,141.887 1306.494,140.649 1306.266 C 139.412 1306.038,138.264 1305.499,138.098 1305.067 C 137.932 1304.635,136.783 1304.119,135.543 1303.921 C 134.304 1303.723,132.956 1303.159,132.549 1302.668 C 132.141 1302.177,131.460 1301.775,131.035 1301.775 C 129.894 1301.775,126.175 1298.078,125.482 1296.254 C 124.747 1294.321,121.893 1293.943,121.893 1295.778 M187.685 1296.426 C 186.973 1297.389,186.391 1298.622,186.391 1299.167 C 186.391 1299.711,185.887 1300.986,185.271 1302.001 C 184.655 1303.016,183.972 1304.693,183.754 1305.728 C 183.535 1306.764,182.974 1307.928,182.506 1308.316 C 182.039 1308.703,181.657 1309.485,181.657 1310.052 C 181.657 1310.619,181.122 1311.762,180.469 1312.593 L 179.282 1314.103 182.456 1316.815 C 184.202 1318.306,185.893 1319.527,186.215 1319.527 C 186.536 1319.527,187.281 1320.059,187.870 1320.710 C 188.459 1321.361,189.568 1321.893,190.334 1321.893 C 191.101 1321.893,192.184 1322.426,192.741 1323.077 C 193.298 1323.728,194.440 1324.260,195.277 1324.260 C 199.124 1324.260,205.325 1330.844,205.325 1334.928 C 205.325 1336.740,205.669 1338.468,206.136 1339.007 C 207.598 1340.693,207.962 1381.193,206.531 1382.962 C 205.454 1384.292,205.171 1384.323,192.440 1384.499 L 179.447 1384.678 179.100 1387.615 C 178.908 1389.230,178.340 1391.139,177.837 1391.857 C 177.335 1392.575,176.923 1394.370,176.923 1395.846 C 176.923 1397.321,176.682 1399.368,176.388 1400.394 C 175.649 1402.970,175.419 1402.941,196.873 1402.951 C 217.207 1402.959,216.568 1403.078,216.568 1399.283 C 216.568 1398.520,216.967 1397.327,217.455 1396.631 C 218.232 1395.521,218.920 1340.094,218.417 1319.134 C 218.310 1314.703,214.026 1310.438,205.139 1305.917 C 201.621 1304.127,198.060 1302.299,197.225 1301.855 C 195.562 1300.969,190.533 1295.939,190.533 1295.160 C 190.533 1294.062,188.895 1294.790,187.685 1296.426 M244.804 1295.926 C 244.224 1296.560,243.587 1297.892,243.388 1298.886 C 243.190 1299.880,242.664 1300.833,242.220 1301.003 C 241.776 1301.173,241.244 1302.371,241.037 1303.666 C 240.830 1304.960,240.325 1306.147,239.915 1306.305 C 239.505 1306.462,239.000 1307.497,238.792 1308.605 C 238.584 1309.712,238.068 1310.826,237.645 1311.079 C 235.592 1312.305,236.971 1317.160,239.371 1317.160 C 239.824 1317.160,240.480 1317.692,240.828 1318.343 C 241.177 1318.994,241.944 1319.527,242.534 1319.527 C 243.123 1319.527,244.220 1320.059,244.970 1320.710 C 245.721 1321.361,246.919 1321.893,247.632 1321.893 C 248.345 1321.893,249.411 1322.426,250.000 1323.077 C 250.589 1323.728,251.654 1324.260,252.367 1324.260 C 253.080 1324.260,254.145 1324.793,254.734 1325.444 C 255.323 1326.095,256.250 1326.627,256.793 1326.627 C 257.775 1326.627,260.355 1328.945,260.355 1329.826 C 260.355 1330.080,260.888 1330.964,261.538 1331.791 C 262.189 1332.619,262.722 1334.104,262.722 1335.092 C 262.722 1336.081,263.188 1337.404,263.757 1338.033 C 264.712 1339.087,264.807 1341.684,264.973 1371.241 C 265.197 1411.007,264.151 1408.562,275.536 1395.933 L 278.402 1392.754 278.211 1380.874 C 278.077 1372.613,277.764 1368.263,277.184 1366.597 C 275.960 1363.087,276.004 1340.423,277.238 1338.792 C 278.685 1336.879,278.450 1324.495,276.923 1322.189 C 276.147 1321.018,275.745 1319.408,275.740 1317.456 C 275.732 1314.163,271.719 1308.876,269.229 1308.876 C 268.579 1308.876,267.551 1308.380,266.945 1307.773 C 266.339 1307.167,264.860 1306.487,263.659 1306.261 C 262.459 1306.036,261.341 1305.499,261.175 1305.067 C 261.009 1304.635,259.860 1304.119,258.620 1303.921 C 257.381 1303.723,256.033 1303.159,255.626 1302.668 C 255.218 1302.177,254.509 1301.775,254.050 1301.775 C 253.219 1301.775,250.480 1299.183,248.225 1296.262 C 246.822 1294.445,246.213 1294.385,244.804 1295.926 M306.920 1295.731 C 306.394 1296.312,305.127 1298.355,304.104 1300.272 C 303.081 1302.189,301.873 1304.129,301.418 1304.584 C 300.964 1305.038,300.592 1305.914,300.592 1306.530 C 300.592 1307.147,300.095 1307.917,299.487 1308.242 C 296.779 1309.691,297.391 1315.321,300.471 1317.287 C 301.636 1318.031,303.011 1318.905,303.526 1319.231 C 308.113 1322.130,312.355 1326.128,312.404 1327.598 C 312.416 1327.969,312.953 1329.434,313.596 1330.853 C 314.635 1333.142,314.768 1334.757,314.780 1345.220 C 314.790 1354.724,314.961 1357.193,315.659 1357.965 C 316.291 1358.663,316.665 1361.491,317.041 1368.423 C 317.436 1375.704,317.787 1378.253,318.542 1379.331 C 319.083 1380.104,319.531 1381.410,319.535 1382.232 C 319.540 1383.055,319.924 1384.393,320.387 1385.207 C 320.851 1386.021,321.653 1387.485,322.170 1388.462 C 322.686 1389.438,323.434 1390.769,323.832 1391.420 C 324.957 1393.259,329.995 1398.225,330.735 1398.225 C 331.100 1398.225,331.542 1398.600,331.718 1399.059 C 331.894 1399.518,332.751 1400.071,333.623 1400.289 C 334.494 1400.506,335.646 1401.079,336.181 1401.562 C 336.717 1402.044,338.779 1402.669,340.764 1402.949 C 342.749 1403.230,344.792 1403.879,345.305 1404.392 C 346.514 1405.601,350.645 1405.600,352.959 1404.390 C 353.935 1403.880,356.065 1403.313,357.692 1403.130 C 360.289 1402.838,364.653 1401.091,369.166 1398.537 C 371.219 1397.376,380.473 1388.035,380.473 1387.125 C 380.473 1386.700,380.848 1386.209,381.307 1386.034 C 381.765 1385.858,382.463 1384.934,382.858 1383.981 C 383.253 1383.028,383.783 1382.249,384.038 1382.249 C 384.292 1382.249,384.802 1381.516,385.172 1380.621 C 385.543 1379.726,386.494 1377.929,387.287 1376.627 C 388.966 1373.873,389.941 1371.772,389.941 1370.913 C 389.941 1370.579,390.473 1369.628,391.124 1368.801 C 391.775 1367.973,392.308 1366.665,392.308 1365.894 C 392.308 1365.123,392.840 1363.499,393.491 1362.285 C 394.142 1361.070,394.684 1359.008,394.695 1357.701 C 394.706 1356.394,395.229 1354.260,395.858 1352.959 C 397.409 1349.747,397.635 1328.855,396.136 1327.199 C 395.638 1326.649,394.981 1324.661,394.675 1322.781 C 394.369 1320.901,393.741 1318.934,393.279 1318.409 C 392.817 1317.885,392.255 1316.590,392.031 1315.533 C 391.806 1314.475,391.409 1313.609,391.149 1313.609 C 390.889 1313.609,390.352 1312.827,389.956 1311.870 C 389.103 1309.810,382.716 1303.550,381.468 1303.550 C 380.991 1303.550,380.457 1303.178,380.283 1302.724 C 380.103 1302.256,378.677 1301.720,376.995 1301.489 C 375.361 1301.264,373.712 1300.704,373.330 1300.244 C 372.386 1299.107,364.621 1299.128,363.111 1300.272 C 362.512 1300.726,361.004 1301.270,359.761 1301.480 C 358.519 1301.690,357.037 1302.375,356.470 1303.002 C 355.902 1303.629,355.125 1304.142,354.742 1304.142 C 354.021 1304.142,350.296 1309.480,350.296 1310.513 C 350.296 1310.835,349.930 1311.402,349.482 1311.773 C 349.035 1312.144,348.489 1313.575,348.269 1314.952 C 348.049 1316.329,347.523 1317.988,347.101 1318.639 C 344.344 1322.885,345.671 1326.773,348.926 1323.987 C 350.271 1322.835,351.643 1321.893,351.975 1321.893 C 352.307 1321.893,353.034 1321.437,353.592 1320.880 C 356.002 1318.470,370.343 1318.490,371.695 1320.905 C 371.999 1321.449,372.525 1321.893,372.864 1321.893 C 373.583 1321.893,376.923 1324.935,376.923 1325.590 C 376.923 1325.835,377.456 1326.568,378.107 1327.219 C 378.757 1327.870,379.290 1328.981,379.290 1329.687 C 379.290 1330.394,379.756 1331.487,380.325 1332.116 C 381.253 1333.141,381.361 1334.789,381.361 1347.929 C 381.361 1361.069,381.253 1362.717,380.325 1363.742 C 379.756 1364.371,379.290 1365.314,379.290 1365.836 C 379.290 1367.000,378.430 1369.017,377.062 1371.061 C 373.694 1376.096,372.525 1377.516,371.473 1377.850 C 370.406 1378.189,369.808 1378.643,366.820 1381.382 C 366.308 1381.852,364.976 1382.413,363.861 1382.628 C 362.747 1382.844,361.309 1383.379,360.667 1383.818 C 358.989 1384.964,345.977 1384.941,345.022 1383.790 C 344.645 1383.336,343.400 1382.788,342.256 1382.574 C 341.111 1382.359,340.027 1381.799,339.846 1381.328 C 339.666 1380.858,339.123 1380.473,338.639 1380.473 C 338.155 1380.473,337.620 1379.941,337.450 1379.290 C 337.279 1378.639,336.747 1378.107,336.266 1378.107 C 335.785 1378.107,335.253 1377.574,335.083 1376.923 C 334.912 1376.272,334.524 1375.740,334.220 1375.740 C 333.916 1375.740,333.266 1374.874,332.775 1373.817 C 332.283 1372.759,331.502 1371.228,331.038 1370.414 C 330.574 1369.601,330.191 1368.216,330.186 1367.337 C 330.181 1366.458,329.739 1365.494,329.204 1365.194 C 328.429 1364.761,328.170 1363.389,327.940 1358.508 C 327.762 1354.724,327.341 1351.919,326.843 1351.200 C 325.685 1349.525,325.748 1335.192,326.923 1333.136 C 328.093 1331.089,328.135 1319.997,326.980 1318.174 C 326.523 1317.454,325.957 1315.670,325.721 1314.211 C 325.107 1310.405,319.395 1304.142,316.538 1304.142 C 315.776 1304.142,311.243 1299.563,311.243 1298.793 C 311.243 1296.398,308.241 1294.271,306.920 1295.731 M73.077 1323.077 C 74.053 1323.724,75.199 1324.254,75.623 1324.256 C 78.037 1324.269,84.024 1331.323,84.024 1334.155 C 84.024 1335.008,84.490 1336.221,85.059 1336.851 C 85.964 1337.851,86.095 1339.327,86.095 1348.522 C 86.095 1357.717,85.964 1359.193,85.059 1360.192 C 84.484 1360.828,84.024 1362.266,84.024 1363.428 C 84.024 1364.625,83.517 1366.165,82.840 1367.025 C 82.189 1367.853,81.657 1368.868,81.657 1369.281 C 81.657 1370.403,76.526 1377.634,74.765 1378.994 C 73.922 1379.645,72.721 1380.654,72.095 1381.237 C 71.470 1381.819,70.370 1382.563,69.651 1382.889 C 68.932 1383.216,67.678 1383.867,66.864 1384.336 C 66.050 1384.806,64.683 1385.194,63.825 1385.198 C 62.967 1385.203,61.503 1385.605,60.571 1386.091 C 58.415 1387.215,51.578 1387.275,49.984 1386.183 C 49.342 1385.744,47.884 1385.239,46.744 1385.061 C 44.722 1384.745,39.645 1381.862,39.645 1381.029 C 39.645 1380.799,39.112 1380.472,38.462 1380.302 C 37.811 1380.132,37.278 1379.568,37.278 1379.049 C 37.278 1378.531,37.059 1378.107,36.791 1378.107 C 36.306 1378.107,33.153 1373.617,33.118 1372.876 C 33.107 1372.661,32.444 1371.154,31.644 1369.527 C 30.775 1367.761,30.179 1365.495,30.164 1363.905 C 30.151 1362.441,29.749 1360.726,29.271 1360.094 C 27.698 1358.014,28.015 1325.504,29.629 1323.453 L 30.855 1321.893 51.078 1321.897 C 70.263 1321.901,71.393 1321.962,73.077 1323.077 " stroke="none" fill="#241c1c" fill-rule="evenodd"></path></g></svg>